%TF.GenerationSoftware,KiCad,Pcbnew,7.0.5*%
%TF.CreationDate,2023-10-18T15:34:20+03:00*%
%TF.ProjectId,Flashlight,466c6173-686c-4696-9768-742e6b696361,rev?*%
%TF.SameCoordinates,Original*%
%TF.FileFunction,Soldermask,Top*%
%TF.FilePolarity,Negative*%
%FSLAX46Y46*%
G04 Gerber Fmt 4.6, Leading zero omitted, Abs format (unit mm)*
G04 Created by KiCad (PCBNEW 7.0.5) date 2023-10-18 15:34:20*
%MOMM*%
%LPD*%
G01*
G04 APERTURE LIST*
G04 Aperture macros list*
%AMRoundRect*
0 Rectangle with rounded corners*
0 $1 Rounding radius*
0 $2 $3 $4 $5 $6 $7 $8 $9 X,Y pos of 4 corners*
0 Add a 4 corners polygon primitive as box body*
4,1,4,$2,$3,$4,$5,$6,$7,$8,$9,$2,$3,0*
0 Add four circle primitives for the rounded corners*
1,1,$1+$1,$2,$3*
1,1,$1+$1,$4,$5*
1,1,$1+$1,$6,$7*
1,1,$1+$1,$8,$9*
0 Add four rect primitives between the rounded corners*
20,1,$1+$1,$2,$3,$4,$5,0*
20,1,$1+$1,$4,$5,$6,$7,0*
20,1,$1+$1,$6,$7,$8,$9,0*
20,1,$1+$1,$8,$9,$2,$3,0*%
G04 Aperture macros list end*
%ADD10RoundRect,0.250000X0.262500X0.450000X-0.262500X0.450000X-0.262500X-0.450000X0.262500X-0.450000X0*%
%ADD11R,1.525000X0.700000*%
%ADD12R,2.513000X3.402000*%
%ADD13RoundRect,0.250000X-0.262500X-0.450000X0.262500X-0.450000X0.262500X0.450000X-0.262500X0.450000X0*%
%ADD14R,2.000000X2.000000*%
%ADD15C,2.000000*%
%ADD16C,2.100000*%
%ADD17RoundRect,0.250000X0.475000X-0.250000X0.475000X0.250000X-0.475000X0.250000X-0.475000X-0.250000X0*%
%ADD18R,1.900000X1.900000*%
%ADD19C,1.900000*%
%ADD20RoundRect,0.243750X-0.243750X-0.456250X0.243750X-0.456250X0.243750X0.456250X-0.243750X0.456250X0*%
%ADD21R,1.700000X1.700000*%
%ADD22O,1.700000X1.700000*%
%ADD23RoundRect,0.250000X1.000000X0.650000X-1.000000X0.650000X-1.000000X-0.650000X1.000000X-0.650000X0*%
%ADD24R,1.400000X0.400000*%
%ADD25O,1.900000X1.050000*%
%ADD26R,1.450000X1.150000*%
%ADD27R,1.900000X1.750000*%
%ADD28C,3.000000*%
%ADD29RoundRect,0.250000X-0.475000X0.250000X-0.475000X-0.250000X0.475000X-0.250000X0.475000X0.250000X0*%
%ADD30R,1.000000X1.500000*%
%ADD31O,1.000000X1.500000*%
%ADD32RoundRect,0.102000X-0.787500X-0.787500X0.787500X-0.787500X0.787500X0.787500X-0.787500X0.787500X0*%
%ADD33C,1.779000*%
%ADD34RoundRect,0.250000X0.250000X0.475000X-0.250000X0.475000X-0.250000X-0.475000X0.250000X-0.475000X0*%
%ADD35R,1.600000X0.550000*%
%ADD36R,0.550000X1.600000*%
G04 APERTURE END LIST*
D10*
%TO.C,R4*%
X131012500Y-115400000D03*
X129187500Y-115400000D03*
%TD*%
D11*
%TO.C,J2*%
X98888000Y-113195000D03*
X98888000Y-114465000D03*
X98888000Y-115735000D03*
X98888000Y-117005000D03*
X104312000Y-117005000D03*
X104312000Y-115735000D03*
X104312000Y-114465000D03*
X104312000Y-113195000D03*
D12*
X101600000Y-115100000D03*
%TD*%
D13*
%TO.C,R5*%
X143837500Y-111500000D03*
X145662500Y-111500000D03*
%TD*%
D14*
%TO.C,C6*%
X183700000Y-122500000D03*
D15*
X183700000Y-127500000D03*
%TD*%
D16*
%TO.C,J4*%
X186250000Y-115250000D03*
X186250000Y-112750000D03*
X186250000Y-110250000D03*
%TD*%
D17*
%TO.C,C4*%
X145750000Y-120250000D03*
X145750000Y-118350000D03*
%TD*%
D18*
%TO.C,S1*%
X152300000Y-118200000D03*
D19*
X154800000Y-118200000D03*
X157300000Y-118200000D03*
%TD*%
D20*
%TO.C,D2*%
X107962500Y-113700000D03*
X109837500Y-113700000D03*
%TD*%
D21*
%TO.C,J5*%
X129840000Y-129000000D03*
D22*
X132380000Y-129000000D03*
X134920000Y-129000000D03*
X137460000Y-129000000D03*
X140000000Y-129000000D03*
X142540000Y-129000000D03*
%TD*%
D17*
%TO.C,C1*%
X91100000Y-116900000D03*
X91100000Y-115000000D03*
%TD*%
D23*
%TO.C,D3*%
X122400000Y-119800000D03*
X118400000Y-119800000D03*
%TD*%
D13*
%TO.C,R6*%
X167687500Y-107400000D03*
X169512500Y-107400000D03*
%TD*%
D24*
%TO.C,J1*%
X85670000Y-116950000D03*
X85670000Y-117600000D03*
X85670000Y-118250000D03*
X85670000Y-118900000D03*
X85670000Y-119550000D03*
D25*
X83020000Y-114675000D03*
D26*
X85250000Y-115930000D03*
D27*
X83020000Y-117125000D03*
X83020000Y-119375000D03*
D26*
X85250000Y-120570000D03*
D25*
X83020000Y-121825000D03*
%TD*%
D28*
%TO.C,H2*%
X163900000Y-125400000D03*
%TD*%
D29*
%TO.C,C2*%
X94700000Y-116950000D03*
X94700000Y-118850000D03*
%TD*%
D28*
%TO.C,H1*%
X92000000Y-125700000D03*
%TD*%
D10*
%TO.C,R2*%
X114612500Y-117000000D03*
X112787500Y-117000000D03*
%TD*%
D30*
%TO.C,Q1*%
X177220000Y-110400000D03*
D31*
X175950000Y-110400000D03*
X174680000Y-110400000D03*
%TD*%
D10*
%TO.C,R1*%
X95812500Y-114400000D03*
X93987500Y-114400000D03*
%TD*%
%TO.C,R3*%
X114512500Y-113700000D03*
X112687500Y-113700000D03*
%TD*%
D21*
%TO.C,J6*%
X144250000Y-108500000D03*
D22*
X141710000Y-108500000D03*
X139170000Y-108500000D03*
X136630000Y-108500000D03*
X134090000Y-108500000D03*
X131550000Y-108500000D03*
%TD*%
D15*
%TO.C,SW1*%
X170850000Y-115950000D03*
X177350000Y-115950000D03*
X170850000Y-120450000D03*
X177350000Y-120450000D03*
%TD*%
D20*
%TO.C,D1*%
X107862500Y-117100000D03*
X109737500Y-117100000D03*
%TD*%
D32*
%TO.C,J3*%
X104500000Y-126500000D03*
D33*
X102000000Y-126500000D03*
%TD*%
D34*
%TO.C,C3*%
X104450000Y-120250000D03*
X102550000Y-120250000D03*
%TD*%
D35*
%TO.C,U1*%
X133400000Y-115400000D03*
X133400000Y-116200000D03*
X133400000Y-117000000D03*
X133400000Y-117800000D03*
X133400000Y-118600000D03*
X133400000Y-119400000D03*
X133400000Y-120200000D03*
X133400000Y-121000000D03*
D36*
X134850000Y-122450000D03*
X135650000Y-122450000D03*
X136450000Y-122450000D03*
X137250000Y-122450000D03*
X138050000Y-122450000D03*
X138850000Y-122450000D03*
X139650000Y-122450000D03*
X140450000Y-122450000D03*
D35*
X141900000Y-121000000D03*
X141900000Y-120200000D03*
X141900000Y-119400000D03*
X141900000Y-118600000D03*
X141900000Y-117800000D03*
X141900000Y-117000000D03*
X141900000Y-116200000D03*
X141900000Y-115400000D03*
D36*
X140450000Y-113950000D03*
X139650000Y-113950000D03*
X138850000Y-113950000D03*
X138050000Y-113950000D03*
X137250000Y-113950000D03*
X136450000Y-113950000D03*
X135650000Y-113950000D03*
X134850000Y-113950000D03*
%TD*%
D34*
%TO.C,C5*%
X139200000Y-111500000D03*
X137300000Y-111500000D03*
%TD*%
D23*
%TO.C,D4*%
X122400000Y-114600000D03*
X118400000Y-114600000D03*
%TD*%
M02*
