M48
; DRILL file {KiCad 7.0.5} date Wed Oct 18 15:34:17 2023
; FORMAT={-:-/ absolute / metric / decimal}
; #@! TF.CreationDate,2023-10-18T15:34:17+03:00
; #@! TF.GenerationSoftware,Kicad,Pcbnew,7.0.5
; #@! TF.FileFunction,MixedPlating,1,2
FMAT,2
METRIC
; #@! TA.AperFunction,Plated,PTH,ViaDrill
T1C0.400
; #@! TA.AperFunction,Plated,PTH,ComponentDrill
T2C0.450
; #@! TA.AperFunction,Plated,PTH,ComponentDrill
T3C0.550
; #@! TA.AperFunction,Plated,PTH,ComponentDrill
T4C0.900
; #@! TA.AperFunction,Plated,PTH,ComponentDrill
T5C1.000
; #@! TA.AperFunction,Plated,PTH,ComponentDrill
T6C1.050
; #@! TA.AperFunction,Plated,PTH,ComponentDrill
T7C1.100
; #@! TA.AperFunction,NonPlated,NPTH,ComponentDrill
T8C3.000
%
G90
G05
T1
X87.5Y-115.05
X87.5Y-121.5
X88.7Y-119.55
X91.15Y-113.85
X92.7Y-114.35
X94.7Y-120.0
X97.205Y-113.195
X97.3Y-115.8
X98.5Y-126.5
X100.3Y-117.8
X101.25Y-120.25
X104.0Y-112.0
X115.5Y-119.75
X120.75Y-116.75
X125.0Y-121.0
X127.7Y-115.4
X129.0Y-108.5
X129.75Y-126.5
X131.4Y-119.05
X133.675Y-122.175
X135.6Y-112.2
X135.75Y-116.2
X137.25Y-118.5
X138.35Y-124.35
X143.55Y-117.8
X145.75Y-117.0
X145.9Y-113.5
X146.05Y-115.45
X147.95Y-121.3
X150.1Y-112.5
X155.4Y-115.45
X161.2Y-116.4
X162.15Y-117.25
X168.6Y-120.5
T3
X174.68Y-110.4
X175.95Y-110.4
X177.22Y-110.4
T4
X152.3Y-118.2
X154.8Y-118.2
X157.3Y-118.2
T5
X129.84Y-129.0
X131.55Y-108.5
X132.38Y-129.0
X134.09Y-108.5
X134.92Y-129.0
X136.63Y-108.5
X137.46Y-129.0
X139.17Y-108.5
X140.0Y-129.0
X141.71Y-108.5
X142.54Y-129.0
X144.25Y-108.5
X183.7Y-122.5
X183.7Y-127.5
T6
X102.0Y-126.5
X104.5Y-126.5
T7
X170.85Y-115.95
X170.85Y-120.45
X177.35Y-115.95
X177.35Y-120.45
X186.25Y-110.25
X186.25Y-112.75
X186.25Y-115.25
T8
X92.0Y-125.7
X163.9Y-125.4
T2
G00X82.62Y-114.675
M15
G01X83.42Y-114.675
M16
G05
G00X83.42Y-121.825
M15
G01X82.62Y-121.825
M16
G05
T0
M30
