%TF.GenerationSoftware,KiCad,Pcbnew,7.0.5*%
%TF.CreationDate,2023-10-17T21:25:03+03:00*%
%TF.ProjectId,Light,4c696768-742e-46b6-9963-61645f706362,rev?*%
%TF.SameCoordinates,Original*%
%TF.FileFunction,Copper,L1,Top*%
%TF.FilePolarity,Positive*%
%FSLAX46Y46*%
G04 Gerber Fmt 4.6, Leading zero omitted, Abs format (unit mm)*
G04 Created by KiCad (PCBNEW 7.0.5) date 2023-10-17 21:25:03*
%MOMM*%
%LPD*%
G01*
G04 APERTURE LIST*
%TA.AperFunction,SMDPad,CuDef*%
%ADD10R,1.500000X1.000000*%
%TD*%
%TA.AperFunction,ComponentPad*%
%ADD11C,2.100000*%
%TD*%
%TA.AperFunction,ViaPad*%
%ADD12C,0.800000*%
%TD*%
%TA.AperFunction,Conductor*%
%ADD13C,0.500000*%
%TD*%
%TA.AperFunction,Conductor*%
%ADD14C,0.300000*%
%TD*%
G04 APERTURE END LIST*
D10*
%TO.P,D9,1,VSS*%
%TO.N,GND*%
X109550000Y-108900000D03*
%TO.P,D9,2,DIN*%
%TO.N,Net-(D8-DO)*%
X109550000Y-112100000D03*
%TO.P,D9,3,VDD*%
%TO.N,/Vcc*%
X114450000Y-112100000D03*
%TO.P,D9,4,DO*%
%TO.N,unconnected-(D9-DO-Pad4)*%
X114450000Y-108900000D03*
%TD*%
%TO.P,D8,1,VSS*%
%TO.N,GND*%
X97550000Y-108900000D03*
%TO.P,D8,2,DIN*%
%TO.N,Net-(D7-DO)*%
X97550000Y-112100000D03*
%TO.P,D8,3,VDD*%
%TO.N,/Vcc*%
X102450000Y-112100000D03*
%TO.P,D8,4,DO*%
%TO.N,Net-(D8-DO)*%
X102450000Y-108900000D03*
%TD*%
%TO.P,D7,1,VSS*%
%TO.N,GND*%
X85550000Y-108900000D03*
%TO.P,D7,2,DIN*%
%TO.N,Net-(D6-DO)*%
X85550000Y-112100000D03*
%TO.P,D7,3,VDD*%
%TO.N,/Vcc*%
X90450000Y-112100000D03*
%TO.P,D7,4,DO*%
%TO.N,Net-(D7-DO)*%
X90450000Y-108900000D03*
%TD*%
%TO.P,D1,1,VSS*%
%TO.N,GND*%
X85550000Y-87900000D03*
%TO.P,D1,2,DIN*%
%TO.N,Net-(D1-DIN)*%
X85550000Y-91100000D03*
%TO.P,D1,3,VDD*%
%TO.N,/Vcc*%
X90450000Y-91100000D03*
%TO.P,D1,4,DO*%
%TO.N,Net-(D1-DO)*%
X90450000Y-87900000D03*
%TD*%
%TO.P,D3,1,VSS*%
%TO.N,GND*%
X109550000Y-87900000D03*
%TO.P,D3,2,DIN*%
%TO.N,Net-(D2-DO)*%
X109550000Y-91100000D03*
%TO.P,D3,3,VDD*%
%TO.N,/Vcc*%
X114450000Y-91100000D03*
%TO.P,D3,4,DO*%
%TO.N,Net-(D3-DO)*%
X114450000Y-87900000D03*
%TD*%
D11*
%TO.P,J1,1*%
%TO.N,GND*%
X79400000Y-102100000D03*
%TO.P,J1,2*%
%TO.N,Net-(D1-DIN)*%
X79400000Y-99600000D03*
%TO.P,J1,3*%
%TO.N,/Vcc*%
X79400000Y-97100000D03*
%TD*%
D10*
%TO.P,D5,1,VSS*%
%TO.N,GND*%
X102450000Y-101600000D03*
%TO.P,D5,2,DIN*%
%TO.N,Net-(D4-DO)*%
X102450000Y-98400000D03*
%TO.P,D5,3,VDD*%
%TO.N,/Vcc*%
X97550000Y-98400000D03*
%TO.P,D5,4,DO*%
%TO.N,Net-(D5-DO)*%
X97550000Y-101600000D03*
%TD*%
%TO.P,D2,1,VSS*%
%TO.N,GND*%
X97600000Y-87900000D03*
%TO.P,D2,2,DIN*%
%TO.N,Net-(D1-DO)*%
X97600000Y-91100000D03*
%TO.P,D2,3,VDD*%
%TO.N,/Vcc*%
X102500000Y-91100000D03*
%TO.P,D2,4,DO*%
%TO.N,Net-(D2-DO)*%
X102500000Y-87900000D03*
%TD*%
%TO.P,D6,1,VSS*%
%TO.N,GND*%
X90450000Y-101600000D03*
%TO.P,D6,2,DIN*%
%TO.N,Net-(D5-DO)*%
X90450000Y-98400000D03*
%TO.P,D6,3,VDD*%
%TO.N,/Vcc*%
X85550000Y-98400000D03*
%TO.P,D6,4,DO*%
%TO.N,Net-(D6-DO)*%
X85550000Y-101600000D03*
%TD*%
%TO.P,D4,1,VSS*%
%TO.N,GND*%
X114450000Y-101600000D03*
%TO.P,D4,2,DIN*%
%TO.N,Net-(D3-DO)*%
X114450000Y-98400000D03*
%TO.P,D4,3,VDD*%
%TO.N,/Vcc*%
X109550000Y-98400000D03*
%TO.P,D4,4,DO*%
%TO.N,Net-(D4-DO)*%
X109550000Y-101600000D03*
%TD*%
D12*
%TO.N,GND*%
X107700000Y-87900000D03*
X85600000Y-107100000D03*
X83800000Y-87900000D03*
X104400000Y-101600000D03*
X95800000Y-87900000D03*
X95700000Y-108900000D03*
X92200000Y-101600000D03*
X116300000Y-101600000D03*
X107900000Y-108900000D03*
%TD*%
D13*
%TO.N,/Vcc*%
X90450000Y-112100000D02*
X92250000Y-113900000D01*
X85550000Y-98400000D02*
X85600000Y-98400000D01*
X85600000Y-98400000D02*
X88000000Y-100800000D01*
X111050000Y-94500000D02*
X114450000Y-91100000D01*
X79400000Y-93300000D02*
X83200000Y-89500000D01*
X99100000Y-94500000D02*
X97550000Y-96050000D01*
X97550000Y-96050000D02*
X97550000Y-98400000D01*
X99100000Y-94500000D02*
X111050000Y-94500000D01*
X100650000Y-113900000D02*
X102450000Y-112100000D01*
X109550000Y-96000000D02*
X109550000Y-98400000D01*
X112650000Y-113900000D02*
X114450000Y-112100000D01*
X88000000Y-100800000D02*
X88000000Y-109650000D01*
X88850000Y-89500000D02*
X90450000Y-91100000D01*
X92250000Y-113900000D02*
X100650000Y-113900000D01*
X79400000Y-97100000D02*
X79400000Y-93300000D01*
X89450000Y-94500000D02*
X85550000Y-98400000D01*
X104250000Y-113900000D02*
X112650000Y-113900000D01*
X83200000Y-89500000D02*
X88850000Y-89500000D01*
X90450000Y-91100000D02*
X90500000Y-91100000D01*
X93900000Y-94500000D02*
X89450000Y-94500000D01*
X111050000Y-94500000D02*
X109550000Y-96000000D01*
X88000000Y-109650000D02*
X90450000Y-112100000D01*
X93900000Y-94500000D02*
X99100000Y-94500000D01*
X102450000Y-112100000D02*
X104250000Y-113900000D01*
X99100000Y-94500000D02*
X102500000Y-91100000D01*
X90500000Y-91100000D02*
X93900000Y-94500000D01*
D14*
%TO.N,Net-(D1-DIN)*%
X79400000Y-99600000D02*
X85550000Y-93450000D01*
X85550000Y-93450000D02*
X85550000Y-91100000D01*
D13*
%TO.N,GND*%
X85550000Y-107150000D02*
X85600000Y-107100000D01*
X90450000Y-101600000D02*
X92200000Y-101600000D01*
X97600000Y-87900000D02*
X95800000Y-87900000D01*
X109550000Y-108900000D02*
X107900000Y-108900000D01*
X97550000Y-108900000D02*
X95700000Y-108900000D01*
X85550000Y-108900000D02*
X85550000Y-107150000D01*
X85550000Y-87900000D02*
X83800000Y-87900000D01*
X114450000Y-101600000D02*
X116300000Y-101600000D01*
X109550000Y-87900000D02*
X107700000Y-87900000D01*
X102450000Y-101600000D02*
X104400000Y-101600000D01*
D14*
%TO.N,Net-(D1-DO)*%
X95600000Y-91100000D02*
X97600000Y-91100000D01*
X92400000Y-87900000D02*
X95600000Y-91100000D01*
X90450000Y-87900000D02*
X92400000Y-87900000D01*
%TO.N,Net-(D2-DO)*%
X104300000Y-87900000D02*
X107500000Y-91100000D01*
X102500000Y-87900000D02*
X104300000Y-87900000D01*
X107500000Y-91100000D02*
X109550000Y-91100000D01*
%TO.N,Net-(D3-DO)*%
X116300000Y-96550000D02*
X114450000Y-98400000D01*
X114450000Y-87900000D02*
X116300000Y-89750000D01*
X116300000Y-89750000D02*
X116300000Y-96550000D01*
%TO.N,Net-(D4-DO)*%
X104400000Y-98400000D02*
X102450000Y-98400000D01*
X109550000Y-101600000D02*
X107600000Y-101600000D01*
X107600000Y-101600000D02*
X104400000Y-98400000D01*
%TO.N,Net-(D5-DO)*%
X95300000Y-101600000D02*
X92100000Y-98400000D01*
X92100000Y-98400000D02*
X90450000Y-98400000D01*
X97550000Y-101600000D02*
X95300000Y-101600000D01*
%TO.N,Net-(D6-DO)*%
X83800000Y-110350000D02*
X85550000Y-112100000D01*
X83800000Y-103350000D02*
X83800000Y-110350000D01*
X85550000Y-101600000D02*
X83800000Y-103350000D01*
%TO.N,Net-(D7-DO)*%
X90450000Y-108900000D02*
X92200000Y-108900000D01*
X95400000Y-112100000D02*
X97550000Y-112100000D01*
X92200000Y-108900000D02*
X95400000Y-112100000D01*
%TO.N,Net-(D8-DO)*%
X104300000Y-108900000D02*
X107500000Y-112100000D01*
X107500000Y-112100000D02*
X109550000Y-112100000D01*
X102450000Y-108900000D02*
X104300000Y-108900000D01*
%TD*%
%TA.AperFunction,Conductor*%
%TO.N,GND*%
G36*
X100388672Y-75135783D02*
G01*
X100822551Y-75148810D01*
X101378144Y-75170915D01*
X101379802Y-75171007D01*
X101811830Y-75201313D01*
X102367129Y-75245571D01*
X102368917Y-75245741D01*
X102798212Y-75293179D01*
X103352467Y-75359618D01*
X103354169Y-75359848D01*
X103780043Y-75424246D01*
X104332393Y-75512856D01*
X104334122Y-75513161D01*
X104755772Y-75594294D01*
X105305423Y-75705047D01*
X105307254Y-75705446D01*
X105723952Y-75803065D01*
X106270048Y-75935895D01*
X106271898Y-75936376D01*
X106682912Y-76050188D01*
X107224733Y-76205034D01*
X107226538Y-76205582D01*
X107631179Y-76335270D01*
X108167857Y-76512010D01*
X108169734Y-76512662D01*
X108567279Y-76657857D01*
X108670767Y-76696562D01*
X109098110Y-76856393D01*
X109099831Y-76857068D01*
X109489690Y-77017412D01*
X110013759Y-77237547D01*
X110015571Y-77238343D01*
X110396780Y-77413273D01*
X110908156Y-77652420D01*
X110913549Y-77654942D01*
X110915341Y-77655815D01*
X111287364Y-77844901D01*
X111795973Y-78107884D01*
X111797778Y-78108855D01*
X112159976Y-78311577D01*
X112659673Y-78595678D01*
X112661398Y-78596697D01*
X112949268Y-78773302D01*
X113013166Y-78812503D01*
X113503174Y-79117491D01*
X113504922Y-79118620D01*
X113845469Y-79346782D01*
X114325274Y-79672579D01*
X114326988Y-79673786D01*
X114655722Y-79913632D01*
X115124540Y-80259978D01*
X115126170Y-80261225D01*
X115442620Y-80512109D01*
X115899763Y-80878797D01*
X115901326Y-80880095D01*
X116204889Y-81141206D01*
X116649693Y-81528041D01*
X116651255Y-81529448D01*
X116941355Y-81799912D01*
X117373125Y-82206665D01*
X117374600Y-82208104D01*
X117650643Y-82486922D01*
X118068896Y-82913575D01*
X118070391Y-82915155D01*
X118207955Y-83065698D01*
X118331880Y-83201316D01*
X118580510Y-83475980D01*
X118735969Y-83647718D01*
X118737410Y-83649368D01*
X118983803Y-83941685D01*
X119373248Y-84407895D01*
X119374573Y-84409540D01*
X119605413Y-84706768D01*
X119979673Y-85192843D01*
X119980983Y-85194609D01*
X120075005Y-85326222D01*
X120195901Y-85495454D01*
X120554300Y-86001330D01*
X120555561Y-86003180D01*
X120754113Y-86306039D01*
X120969168Y-86636715D01*
X121096259Y-86832134D01*
X121097453Y-86834045D01*
X121279050Y-87136807D01*
X121278965Y-87136857D01*
X121279268Y-87137171D01*
X121604661Y-87683900D01*
X121605767Y-87685839D01*
X121691009Y-87841779D01*
X121770450Y-87987108D01*
X122078670Y-88555227D01*
X122079722Y-88557255D01*
X122226774Y-88853887D01*
X122226685Y-88853930D01*
X122226935Y-88854210D01*
X122517591Y-89444834D01*
X122518568Y-89446917D01*
X122529479Y-89471335D01*
X122647973Y-89736526D01*
X122747141Y-89960057D01*
X122920652Y-90351167D01*
X122921552Y-90353301D01*
X123032747Y-90631543D01*
X123032741Y-90631545D01*
X123032859Y-90631820D01*
X123287273Y-91272909D01*
X123288092Y-91275092D01*
X123381022Y-91537655D01*
X123440718Y-91707482D01*
X123616829Y-92208496D01*
X123617565Y-92210724D01*
X123691910Y-92450927D01*
X123691945Y-92451164D01*
X123691980Y-92451154D01*
X123908831Y-93156540D01*
X123909482Y-93158812D01*
X123965089Y-93367735D01*
X124028577Y-93607853D01*
X124162783Y-94115441D01*
X124163340Y-94117722D01*
X124200040Y-94281759D01*
X124200059Y-94281933D01*
X124200078Y-94281929D01*
X124378290Y-95083692D01*
X124378764Y-95086040D01*
X124396434Y-95183097D01*
X124554975Y-96059562D01*
X124555366Y-96061997D01*
X124692220Y-97038891D01*
X124692513Y-97041339D01*
X124790424Y-98022934D01*
X124790618Y-98025377D01*
X124849426Y-99010083D01*
X124849522Y-99012497D01*
X124857960Y-99436818D01*
X124869135Y-99998768D01*
X124869135Y-100001230D01*
X124862726Y-100323533D01*
X124849557Y-100985777D01*
X124849523Y-100987477D01*
X124849425Y-100989918D01*
X124791082Y-101966872D01*
X124790620Y-101974607D01*
X124790424Y-101977065D01*
X124692513Y-102958660D01*
X124692220Y-102961108D01*
X124555366Y-103938002D01*
X124554975Y-103940437D01*
X124396434Y-104816902D01*
X124378764Y-104913959D01*
X124378290Y-104916306D01*
X124200097Y-105717986D01*
X124163340Y-105882276D01*
X124162776Y-105884587D01*
X123965089Y-106632264D01*
X123909482Y-106841186D01*
X123908831Y-106843458D01*
X123691945Y-107548958D01*
X123617565Y-107789273D01*
X123616829Y-107791502D01*
X123381076Y-108462192D01*
X123288092Y-108724906D01*
X123287273Y-108727089D01*
X123032818Y-109368282D01*
X122921552Y-109646697D01*
X122920652Y-109648831D01*
X122648063Y-110263272D01*
X122640353Y-110280528D01*
X122518568Y-110553081D01*
X122517590Y-110555164D01*
X122226871Y-111145916D01*
X122079722Y-111442743D01*
X122078670Y-111444771D01*
X121770450Y-112012890D01*
X121605786Y-112314127D01*
X121604661Y-112316098D01*
X121279201Y-112862939D01*
X121097453Y-113165953D01*
X121096259Y-113167864D01*
X120754183Y-113693852D01*
X120555561Y-113996818D01*
X120554300Y-113998668D01*
X120195901Y-114504544D01*
X119980997Y-114805370D01*
X119979673Y-114807155D01*
X119605472Y-115293155D01*
X119374599Y-115590426D01*
X119373215Y-115592144D01*
X118983803Y-116058313D01*
X118737410Y-116350630D01*
X118735969Y-116352280D01*
X118331858Y-116798707D01*
X118070391Y-117084843D01*
X118068896Y-117086423D01*
X117650643Y-117513076D01*
X117374634Y-117791861D01*
X117373088Y-117793369D01*
X116941355Y-118200086D01*
X116651255Y-118470550D01*
X116649662Y-118471985D01*
X116204879Y-118858801D01*
X115901378Y-119119860D01*
X115899741Y-119121219D01*
X115442640Y-119487874D01*
X115126196Y-119738753D01*
X115124518Y-119740037D01*
X114655743Y-120086351D01*
X114326988Y-120326212D01*
X114325274Y-120327419D01*
X113845469Y-120653216D01*
X113504922Y-120881378D01*
X113503174Y-120882507D01*
X113013166Y-121187495D01*
X112661437Y-121403278D01*
X112659659Y-121404328D01*
X112159976Y-121688421D01*
X111797778Y-121891143D01*
X111795973Y-121892114D01*
X111287391Y-122155083D01*
X110915377Y-122344165D01*
X110913549Y-122345056D01*
X110396842Y-122586696D01*
X110015607Y-122761639D01*
X110013759Y-122762451D01*
X109489595Y-122982626D01*
X109099911Y-123142898D01*
X109098047Y-123143630D01*
X108567279Y-123342141D01*
X108169734Y-123487336D01*
X108167857Y-123487988D01*
X107631115Y-123664749D01*
X107226590Y-123794400D01*
X107224704Y-123794972D01*
X106682848Y-123949828D01*
X106271920Y-124063616D01*
X106270028Y-124064108D01*
X105723911Y-124196943D01*
X105307292Y-124294543D01*
X105305397Y-124294956D01*
X104755808Y-124405697D01*
X104672859Y-124421659D01*
X104334233Y-124486817D01*
X104332338Y-124487151D01*
X103779999Y-124575759D01*
X103354280Y-124640134D01*
X103352390Y-124640390D01*
X102798190Y-124706822D01*
X102368963Y-124754252D01*
X102367079Y-124754431D01*
X101811891Y-124798681D01*
X101379912Y-124828985D01*
X101378038Y-124829088D01*
X100822578Y-124851187D01*
X100408678Y-124863615D01*
X100388672Y-124864216D01*
X100386816Y-124864244D01*
X99831960Y-124864244D01*
X99396813Y-124859890D01*
X99394968Y-124859844D01*
X98841532Y-124837824D01*
X98405904Y-124816013D01*
X98404078Y-124815895D01*
X97852890Y-124771963D01*
X97417581Y-124732659D01*
X97415777Y-124732470D01*
X96867505Y-124666749D01*
X96433363Y-124609961D01*
X96431583Y-124609702D01*
X95887090Y-124522352D01*
X95454810Y-124448110D01*
X95453057Y-124447783D01*
X94913234Y-124339011D01*
X94695785Y-124292639D01*
X94483502Y-124247369D01*
X94481779Y-124246976D01*
X93947327Y-124116977D01*
X93674581Y-124047297D01*
X93520973Y-124008054D01*
X93519312Y-124007604D01*
X92991057Y-123856634D01*
X92673969Y-123761961D01*
X92568738Y-123730541D01*
X92567102Y-123730028D01*
X92045958Y-123558402D01*
X91628359Y-123415287D01*
X91626740Y-123414707D01*
X91113355Y-123222696D01*
X90701284Y-123062780D01*
X90699704Y-123062142D01*
X90194965Y-122850126D01*
X89788970Y-122673568D01*
X89787457Y-122672886D01*
X89603154Y-122586696D01*
X89292058Y-122441210D01*
X88892983Y-122248323D01*
X88891487Y-122247575D01*
X88412762Y-122000045D01*
X88406110Y-121996605D01*
X88396071Y-121991247D01*
X88014607Y-121787657D01*
X88013181Y-121786871D01*
X87538538Y-121517013D01*
X87155378Y-121292375D01*
X87153974Y-121291527D01*
X86690815Y-121003250D01*
X86685749Y-121000001D01*
X98694532Y-121000001D01*
X98714364Y-121226686D01*
X98714366Y-121226697D01*
X98773258Y-121446488D01*
X98773261Y-121446497D01*
X98869431Y-121652732D01*
X98869432Y-121652734D01*
X98999954Y-121839141D01*
X99160858Y-122000045D01*
X99160861Y-122000047D01*
X99347266Y-122130568D01*
X99553504Y-122226739D01*
X99773308Y-122285635D01*
X99943214Y-122300499D01*
X99943215Y-122300500D01*
X100056784Y-122300500D01*
X100056785Y-122300500D01*
X100056785Y-122300499D01*
X100226692Y-122285635D01*
X100446496Y-122226739D01*
X100652734Y-122130568D01*
X100839139Y-122000047D01*
X101000047Y-121839139D01*
X101130568Y-121652734D01*
X101226739Y-121446496D01*
X101285635Y-121226692D01*
X101305468Y-121000000D01*
X101285635Y-120773308D01*
X101226739Y-120553504D01*
X101130568Y-120347266D01*
X101028144Y-120200988D01*
X101000045Y-120160858D01*
X100839141Y-119999954D01*
X100652734Y-119869432D01*
X100652732Y-119869431D01*
X100446497Y-119773261D01*
X100446488Y-119773258D01*
X100226697Y-119714366D01*
X100226687Y-119714364D01*
X100056785Y-119699500D01*
X100056784Y-119699500D01*
X99943216Y-119699500D01*
X99943215Y-119699500D01*
X99773312Y-119714364D01*
X99773302Y-119714366D01*
X99553511Y-119773258D01*
X99553502Y-119773261D01*
X99347267Y-119869431D01*
X99347265Y-119869432D01*
X99160858Y-119999954D01*
X98999954Y-120160858D01*
X98869432Y-120347265D01*
X98869431Y-120347267D01*
X98773261Y-120553502D01*
X98773258Y-120553511D01*
X98714366Y-120773302D01*
X98714364Y-120773313D01*
X98694532Y-120999998D01*
X98694532Y-121000001D01*
X86685749Y-121000001D01*
X86316552Y-120763207D01*
X86315196Y-120762311D01*
X85864165Y-120456053D01*
X85499464Y-120200988D01*
X85498157Y-120200049D01*
X85060112Y-119876436D01*
X84705461Y-119606645D01*
X84704205Y-119605664D01*
X84279622Y-119265093D01*
X83935819Y-118981137D01*
X83934615Y-118980117D01*
X83524173Y-118623164D01*
X83191727Y-118325432D01*
X83190576Y-118324375D01*
X82794875Y-117951601D01*
X82474292Y-117640498D01*
X82473319Y-117639530D01*
X82092932Y-117251503D01*
X81934407Y-117084843D01*
X81784894Y-116927656D01*
X81783852Y-116926534D01*
X81419426Y-116523949D01*
X81124414Y-116187834D01*
X81123428Y-116186683D01*
X81016195Y-116058313D01*
X80775445Y-115770108D01*
X80493960Y-115422265D01*
X80493031Y-115421088D01*
X80162043Y-114991213D01*
X79995799Y-114768081D01*
X79894512Y-114632133D01*
X79893640Y-114630933D01*
X79580165Y-114188467D01*
X79327032Y-113818703D01*
X79326299Y-113817605D01*
X79030743Y-113363149D01*
X78792463Y-112983325D01*
X78791777Y-112982202D01*
X78514660Y-112516584D01*
X78291699Y-112127414D01*
X78291006Y-112126171D01*
X78187763Y-111935871D01*
X78032694Y-111650043D01*
X77825398Y-111252101D01*
X77824799Y-111250917D01*
X77593874Y-110781669D01*
X77585686Y-110765032D01*
X77394349Y-110358841D01*
X77393865Y-110357781D01*
X77174282Y-109862824D01*
X76999350Y-109449302D01*
X76998831Y-109448035D01*
X76998767Y-109447873D01*
X76799201Y-108944997D01*
X76640886Y-108524627D01*
X76640428Y-108523369D01*
X76628020Y-108488070D01*
X76461003Y-108012929D01*
X76442343Y-107956649D01*
X76319582Y-107586410D01*
X76319182Y-107585154D01*
X76305118Y-107539407D01*
X76160206Y-107068029D01*
X76035920Y-106636040D01*
X76035643Y-106635036D01*
X75897342Y-106111964D01*
X75790429Y-105675309D01*
X75790159Y-105674154D01*
X75672794Y-105146136D01*
X75583417Y-104705451D01*
X75583200Y-104704322D01*
X75486925Y-104172082D01*
X75415246Y-103728146D01*
X75415076Y-103727019D01*
X75340045Y-103191425D01*
X75286171Y-102744856D01*
X75286045Y-102743708D01*
X75275383Y-102636818D01*
X75232381Y-102205709D01*
X75196409Y-101757244D01*
X75196337Y-101756206D01*
X75164097Y-101216369D01*
X75146100Y-100766875D01*
X75146069Y-100765843D01*
X75135319Y-100225228D01*
X75135319Y-99774771D01*
X75138795Y-99600000D01*
X77844706Y-99600000D01*
X77863853Y-99843297D01*
X77863853Y-99843300D01*
X77863854Y-99843302D01*
X77901474Y-100000000D01*
X77920830Y-100080619D01*
X78014222Y-100306089D01*
X78141737Y-100514173D01*
X78141738Y-100514176D01*
X78175389Y-100553576D01*
X78300241Y-100699759D01*
X78382406Y-100769934D01*
X78485818Y-100858257D01*
X78485823Y-100858260D01*
X78540435Y-100891727D01*
X78563326Y-100909773D01*
X79228431Y-101574878D01*
X79111542Y-101625651D01*
X78994261Y-101721066D01*
X78907072Y-101844585D01*
X78876645Y-101930196D01*
X78138504Y-101192056D01*
X78014668Y-101394141D01*
X78014665Y-101394146D01*
X77921303Y-101619542D01*
X77864348Y-101856780D01*
X77845207Y-102100000D01*
X77864348Y-102343219D01*
X77921303Y-102580457D01*
X78014668Y-102805861D01*
X78138504Y-103007942D01*
X78874070Y-102272375D01*
X78876884Y-102285915D01*
X78946442Y-102420156D01*
X79049638Y-102530652D01*
X79178819Y-102609209D01*
X79230002Y-102623549D01*
X78492056Y-103361494D01*
X78694138Y-103485331D01*
X78919542Y-103578696D01*
X79156780Y-103635651D01*
X79156779Y-103635651D01*
X79400000Y-103654792D01*
X79643219Y-103635651D01*
X79880457Y-103578696D01*
X80105861Y-103485331D01*
X80307942Y-103361494D01*
X79571568Y-102625121D01*
X79688458Y-102574349D01*
X79805739Y-102478934D01*
X79892928Y-102355415D01*
X79923354Y-102269802D01*
X80661494Y-103007942D01*
X80785331Y-102805861D01*
X80878696Y-102580457D01*
X80935651Y-102343219D01*
X80954792Y-102100000D01*
X80935651Y-101856780D01*
X80878696Y-101619542D01*
X80785331Y-101394138D01*
X80661494Y-101192056D01*
X79925929Y-101927622D01*
X79923116Y-101914085D01*
X79853558Y-101779844D01*
X79750362Y-101669348D01*
X79621181Y-101590791D01*
X79569997Y-101576450D01*
X80236673Y-100909772D01*
X80259560Y-100891729D01*
X80314179Y-100858259D01*
X80499759Y-100699759D01*
X80658259Y-100514179D01*
X80785777Y-100306089D01*
X80879172Y-100080612D01*
X80936146Y-99843302D01*
X80955294Y-99600000D01*
X80936146Y-99356698D01*
X80880162Y-99123512D01*
X80883652Y-99053736D01*
X80913053Y-99006891D01*
X85949513Y-93970431D01*
X85962079Y-93960365D01*
X85961925Y-93960178D01*
X85967933Y-93955205D01*
X85967940Y-93955202D01*
X86008729Y-93911765D01*
X86016532Y-93903456D01*
X86017856Y-93902088D01*
X86038911Y-93881035D01*
X86043401Y-93875245D01*
X86047183Y-93870815D01*
X86080448Y-93835393D01*
X86090674Y-93816790D01*
X86101353Y-93800533D01*
X86114362Y-93783764D01*
X86133656Y-93739175D01*
X86136212Y-93733956D01*
X86159627Y-93691368D01*
X86164905Y-93670806D01*
X86171207Y-93652399D01*
X86179635Y-93632927D01*
X86187233Y-93584953D01*
X86188414Y-93579247D01*
X86200500Y-93532177D01*
X86200500Y-93510949D01*
X86202027Y-93491549D01*
X86205346Y-93470595D01*
X86200772Y-93422216D01*
X86200499Y-93416422D01*
X86200499Y-92224498D01*
X86220184Y-92157460D01*
X86272988Y-92111705D01*
X86324499Y-92100499D01*
X86347871Y-92100499D01*
X86347872Y-92100499D01*
X86407483Y-92094091D01*
X86542331Y-92043796D01*
X86657546Y-91957546D01*
X86743796Y-91842331D01*
X86794091Y-91707483D01*
X86800500Y-91647873D01*
X86800499Y-90552128D01*
X86794091Y-90492517D01*
X86766236Y-90417833D01*
X86761252Y-90348141D01*
X86794737Y-90286818D01*
X86856061Y-90253334D01*
X86882418Y-90250500D01*
X88487770Y-90250500D01*
X88554809Y-90270185D01*
X88575451Y-90286819D01*
X89163181Y-90874548D01*
X89196666Y-90935871D01*
X89199500Y-90962229D01*
X89199500Y-91647870D01*
X89199501Y-91647876D01*
X89205908Y-91707483D01*
X89256202Y-91842328D01*
X89256206Y-91842335D01*
X89342452Y-91957544D01*
X89342455Y-91957547D01*
X89457664Y-92043793D01*
X89457671Y-92043797D01*
X89592517Y-92094091D01*
X89592516Y-92094091D01*
X89599444Y-92094835D01*
X89652127Y-92100500D01*
X90387769Y-92100499D01*
X90454808Y-92120183D01*
X90475450Y-92136818D01*
X91241955Y-92903323D01*
X91876452Y-93537819D01*
X91909937Y-93599142D01*
X91904953Y-93668834D01*
X91863081Y-93724767D01*
X91797617Y-93749184D01*
X91788771Y-93749500D01*
X89513705Y-93749500D01*
X89495735Y-93748191D01*
X89471972Y-93744710D01*
X89426533Y-93748686D01*
X89419931Y-93749264D01*
X89414530Y-93749500D01*
X89406283Y-93749500D01*
X89374606Y-93753202D01*
X89372832Y-93753384D01*
X89342390Y-93756047D01*
X89297198Y-93760001D01*
X89290132Y-93761460D01*
X89290120Y-93761404D01*
X89282763Y-93763035D01*
X89282777Y-93763092D01*
X89275740Y-93764760D01*
X89204385Y-93790729D01*
X89202685Y-93791320D01*
X89130668Y-93815185D01*
X89124126Y-93818236D01*
X89124101Y-93818183D01*
X89117308Y-93821471D01*
X89117334Y-93821523D01*
X89110880Y-93824764D01*
X89047468Y-93866470D01*
X89045948Y-93867439D01*
X88981348Y-93907285D01*
X88975683Y-93911765D01*
X88975647Y-93911719D01*
X88969798Y-93916484D01*
X88969835Y-93916528D01*
X88964309Y-93921164D01*
X88912213Y-93976381D01*
X88910958Y-93977674D01*
X85525449Y-97363181D01*
X85464126Y-97396666D01*
X85437768Y-97399500D01*
X84752129Y-97399500D01*
X84752123Y-97399501D01*
X84692516Y-97405908D01*
X84557671Y-97456202D01*
X84557664Y-97456206D01*
X84442455Y-97542452D01*
X84442452Y-97542455D01*
X84356206Y-97657664D01*
X84356202Y-97657671D01*
X84305908Y-97792517D01*
X84299874Y-97848644D01*
X84299501Y-97852123D01*
X84299500Y-97852135D01*
X84299500Y-98947870D01*
X84299501Y-98947876D01*
X84305908Y-99007483D01*
X84356202Y-99142328D01*
X84356206Y-99142335D01*
X84442452Y-99257544D01*
X84442455Y-99257547D01*
X84557664Y-99343793D01*
X84557671Y-99343797D01*
X84692517Y-99394091D01*
X84692516Y-99394091D01*
X84699444Y-99394835D01*
X84752127Y-99400500D01*
X85487769Y-99400499D01*
X85554808Y-99420183D01*
X85575450Y-99436818D01*
X86541975Y-100403343D01*
X86575460Y-100464666D01*
X86570476Y-100534358D01*
X86528604Y-100590291D01*
X86463140Y-100614708D01*
X86410961Y-100607206D01*
X86407482Y-100605908D01*
X86407483Y-100605908D01*
X86347883Y-100599501D01*
X86347881Y-100599500D01*
X86347873Y-100599500D01*
X86347864Y-100599500D01*
X84752129Y-100599500D01*
X84752123Y-100599501D01*
X84692516Y-100605908D01*
X84557671Y-100656202D01*
X84557664Y-100656206D01*
X84442455Y-100742452D01*
X84442452Y-100742455D01*
X84356206Y-100857664D01*
X84356202Y-100857671D01*
X84305908Y-100992517D01*
X84305099Y-101000047D01*
X84299501Y-101052123D01*
X84299500Y-101052135D01*
X84299500Y-101879191D01*
X84279815Y-101946230D01*
X84263181Y-101966872D01*
X83400483Y-102829569D01*
X83387910Y-102839643D01*
X83388065Y-102839830D01*
X83382058Y-102844798D01*
X83333468Y-102896542D01*
X83332114Y-102897938D01*
X83311090Y-102918963D01*
X83311078Y-102918977D01*
X83306587Y-102924765D01*
X83302801Y-102929197D01*
X83269552Y-102964606D01*
X83259322Y-102983213D01*
X83248646Y-102999464D01*
X83235640Y-103016232D01*
X83235636Y-103016238D01*
X83216348Y-103060811D01*
X83213777Y-103066058D01*
X83190372Y-103108630D01*
X83190372Y-103108631D01*
X83185091Y-103129199D01*
X83178791Y-103147601D01*
X83170364Y-103167073D01*
X83162766Y-103215047D01*
X83161581Y-103220770D01*
X83149500Y-103267818D01*
X83149500Y-103289044D01*
X83147973Y-103308444D01*
X83144653Y-103329403D01*
X83149225Y-103377767D01*
X83149500Y-103383606D01*
X83149500Y-110264494D01*
X83147732Y-110280505D01*
X83147974Y-110280528D01*
X83147239Y-110288294D01*
X83149469Y-110359235D01*
X83149500Y-110361183D01*
X83149500Y-110390920D01*
X83149501Y-110390940D01*
X83150418Y-110398206D01*
X83150876Y-110404024D01*
X83152402Y-110452567D01*
X83152403Y-110452570D01*
X83158323Y-110472948D01*
X83162268Y-110491996D01*
X83164928Y-110513054D01*
X83164931Y-110513064D01*
X83182813Y-110558230D01*
X83184705Y-110563758D01*
X83198254Y-110610395D01*
X83198255Y-110610397D01*
X83209060Y-110628666D01*
X83217617Y-110646134D01*
X83223226Y-110660300D01*
X83225432Y-110665872D01*
X83253983Y-110705170D01*
X83257188Y-110710049D01*
X83281919Y-110751865D01*
X83281923Y-110751869D01*
X83296925Y-110766871D01*
X83309563Y-110781669D01*
X83322033Y-110798833D01*
X83322036Y-110798837D01*
X83359464Y-110829799D01*
X83363776Y-110833722D01*
X83887719Y-111357664D01*
X84263181Y-111733126D01*
X84296666Y-111794449D01*
X84299500Y-111820807D01*
X84299500Y-112647870D01*
X84299501Y-112647876D01*
X84305908Y-112707483D01*
X84356202Y-112842328D01*
X84356206Y-112842335D01*
X84442452Y-112957544D01*
X84442455Y-112957547D01*
X84557664Y-113043793D01*
X84557671Y-113043797D01*
X84692517Y-113094091D01*
X84692516Y-113094091D01*
X84699444Y-113094835D01*
X84752127Y-113100500D01*
X86347872Y-113100499D01*
X86407483Y-113094091D01*
X86542331Y-113043796D01*
X86657546Y-112957546D01*
X86743796Y-112842331D01*
X86794091Y-112707483D01*
X86800500Y-112647873D01*
X86800499Y-111552128D01*
X86794091Y-111492517D01*
X86768929Y-111425055D01*
X86743797Y-111357671D01*
X86743793Y-111357664D01*
X86657547Y-111242455D01*
X86657544Y-111242452D01*
X86542335Y-111156206D01*
X86542328Y-111156202D01*
X86407482Y-111105908D01*
X86407483Y-111105908D01*
X86347883Y-111099501D01*
X86347881Y-111099500D01*
X86347873Y-111099500D01*
X86347865Y-111099500D01*
X85520808Y-111099500D01*
X85453769Y-111079815D01*
X85433127Y-111063181D01*
X84486819Y-110116873D01*
X84453334Y-110055550D01*
X84450500Y-110029192D01*
X84450500Y-109981884D01*
X84470185Y-109914845D01*
X84522989Y-109869090D01*
X84592147Y-109859146D01*
X84617834Y-109865703D01*
X84692616Y-109893595D01*
X84692627Y-109893598D01*
X84752155Y-109899999D01*
X84752172Y-109900000D01*
X85300000Y-109900000D01*
X85300000Y-109150000D01*
X85800000Y-109150000D01*
X85800000Y-109900000D01*
X86347828Y-109900000D01*
X86347844Y-109899999D01*
X86407372Y-109893598D01*
X86407379Y-109893596D01*
X86542086Y-109843354D01*
X86542093Y-109843350D01*
X86657187Y-109757190D01*
X86657190Y-109757187D01*
X86743350Y-109642093D01*
X86743354Y-109642086D01*
X86793596Y-109507379D01*
X86793598Y-109507372D01*
X86799999Y-109447844D01*
X86800000Y-109447827D01*
X86800000Y-109150000D01*
X85800000Y-109150000D01*
X85300000Y-109150000D01*
X85300000Y-107900000D01*
X85800000Y-107900000D01*
X85800000Y-108650000D01*
X86800000Y-108650000D01*
X86800000Y-108352172D01*
X86799999Y-108352155D01*
X86793598Y-108292627D01*
X86793596Y-108292620D01*
X86743354Y-108157913D01*
X86743350Y-108157906D01*
X86657190Y-108042812D01*
X86657187Y-108042809D01*
X86542093Y-107956649D01*
X86542086Y-107956645D01*
X86407379Y-107906403D01*
X86407372Y-107906401D01*
X86347844Y-107900000D01*
X85800000Y-107900000D01*
X85300000Y-107900000D01*
X84752155Y-107900000D01*
X84692627Y-107906401D01*
X84692620Y-107906403D01*
X84617833Y-107934297D01*
X84548141Y-107939281D01*
X84486818Y-107905796D01*
X84453334Y-107844473D01*
X84450500Y-107818115D01*
X84450500Y-103670806D01*
X84470185Y-103603767D01*
X84486814Y-103583129D01*
X85433126Y-102636817D01*
X85494449Y-102603333D01*
X85520807Y-102600499D01*
X86347871Y-102600499D01*
X86347872Y-102600499D01*
X86407483Y-102594091D01*
X86542331Y-102543796D01*
X86657546Y-102457546D01*
X86743796Y-102342331D01*
X86794091Y-102207483D01*
X86800500Y-102147873D01*
X86800499Y-101052128D01*
X86794091Y-100992517D01*
X86792794Y-100989039D01*
X86792587Y-100986151D01*
X86792308Y-100984969D01*
X86792499Y-100984923D01*
X86787808Y-100919348D01*
X86821292Y-100858024D01*
X86882615Y-100824538D01*
X86952307Y-100829522D01*
X86996656Y-100858023D01*
X87213181Y-101074548D01*
X87246666Y-101135871D01*
X87249500Y-101162229D01*
X87249500Y-109586294D01*
X87248191Y-109604263D01*
X87244710Y-109628025D01*
X87249264Y-109680064D01*
X87249500Y-109685470D01*
X87249500Y-109693712D01*
X87253202Y-109725391D01*
X87253386Y-109727185D01*
X87260000Y-109802792D01*
X87261461Y-109809867D01*
X87261403Y-109809878D01*
X87263034Y-109817237D01*
X87263092Y-109817224D01*
X87264757Y-109824249D01*
X87264758Y-109824254D01*
X87264759Y-109824255D01*
X87290176Y-109894091D01*
X87290708Y-109895551D01*
X87291299Y-109897253D01*
X87315182Y-109969326D01*
X87318236Y-109975874D01*
X87318182Y-109975898D01*
X87321470Y-109982688D01*
X87321521Y-109982663D01*
X87324761Y-109989113D01*
X87324762Y-109989114D01*
X87324763Y-109989117D01*
X87366494Y-110052567D01*
X87367443Y-110054058D01*
X87406188Y-110116873D01*
X87407289Y-110118657D01*
X87411766Y-110124319D01*
X87411719Y-110124356D01*
X87416482Y-110130202D01*
X87416528Y-110130164D01*
X87421173Y-110135699D01*
X87476364Y-110187769D01*
X87477658Y-110189026D01*
X89163181Y-111874548D01*
X89196666Y-111935871D01*
X89199500Y-111962229D01*
X89199500Y-112647870D01*
X89199501Y-112647876D01*
X89205908Y-112707483D01*
X89256202Y-112842328D01*
X89256206Y-112842335D01*
X89342452Y-112957544D01*
X89342455Y-112957547D01*
X89457664Y-113043793D01*
X89457671Y-113043797D01*
X89502618Y-113060560D01*
X89592517Y-113094091D01*
X89652127Y-113100500D01*
X90337769Y-113100499D01*
X90404808Y-113120183D01*
X90425450Y-113136818D01*
X91674267Y-114385634D01*
X91686048Y-114399266D01*
X91700390Y-114418530D01*
X91740420Y-114452119D01*
X91744392Y-114455759D01*
X91747313Y-114458680D01*
X91750223Y-114461591D01*
X91775246Y-114481375D01*
X91776628Y-114482501D01*
X91834785Y-114531301D01*
X91834786Y-114531302D01*
X91840823Y-114535272D01*
X91840789Y-114535322D01*
X91847144Y-114539370D01*
X91847177Y-114539318D01*
X91853318Y-114543106D01*
X91853323Y-114543110D01*
X91922144Y-114575201D01*
X91923660Y-114575935D01*
X91991567Y-114610040D01*
X91991572Y-114610041D01*
X91998355Y-114612510D01*
X91998334Y-114612567D01*
X92005451Y-114615040D01*
X92005470Y-114614984D01*
X92012324Y-114617254D01*
X92012327Y-114617256D01*
X92086715Y-114632615D01*
X92088352Y-114632978D01*
X92162279Y-114650500D01*
X92162285Y-114650500D01*
X92169452Y-114651338D01*
X92169445Y-114651397D01*
X92176946Y-114652163D01*
X92176952Y-114652104D01*
X92184141Y-114652733D01*
X92184143Y-114652732D01*
X92184144Y-114652733D01*
X92205764Y-114652104D01*
X92260012Y-114650526D01*
X92261815Y-114650500D01*
X100586295Y-114650500D01*
X100604265Y-114651809D01*
X100628023Y-114655289D01*
X100680068Y-114650735D01*
X100685470Y-114650500D01*
X100693704Y-114650500D01*
X100693709Y-114650500D01*
X100725458Y-114646788D01*
X100727075Y-114646622D01*
X100802797Y-114639999D01*
X100802805Y-114639996D01*
X100809866Y-114638539D01*
X100809878Y-114638598D01*
X100817243Y-114636965D01*
X100817229Y-114636906D01*
X100824251Y-114635241D01*
X100824255Y-114635241D01*
X100895587Y-114609277D01*
X100897286Y-114608688D01*
X100969334Y-114584814D01*
X100969342Y-114584808D01*
X100975882Y-114581760D01*
X100975908Y-114581816D01*
X100982690Y-114578532D01*
X100982663Y-114578478D01*
X100989109Y-114575239D01*
X100989117Y-114575237D01*
X101052612Y-114533475D01*
X101053977Y-114532605D01*
X101118656Y-114492712D01*
X101118661Y-114492706D01*
X101124325Y-114488229D01*
X101124362Y-114488277D01*
X101130204Y-114483518D01*
X101130164Y-114483471D01*
X101135686Y-114478835D01*
X101135696Y-114478830D01*
X101187800Y-114423601D01*
X101188994Y-114422372D01*
X102362320Y-113249045D01*
X102423641Y-113215562D01*
X102493333Y-113220546D01*
X102537677Y-113249045D01*
X103106163Y-113817530D01*
X103674267Y-114385634D01*
X103686048Y-114399266D01*
X103700390Y-114418530D01*
X103740420Y-114452119D01*
X103744392Y-114455759D01*
X103747313Y-114458680D01*
X103750223Y-114461591D01*
X103775246Y-114481375D01*
X103776628Y-114482501D01*
X103834785Y-114531301D01*
X103834786Y-114531302D01*
X103840823Y-114535272D01*
X103840789Y-114535322D01*
X103847144Y-114539370D01*
X103847177Y-114539318D01*
X103853318Y-114543106D01*
X103853323Y-114543110D01*
X103922144Y-114575201D01*
X103923660Y-114575935D01*
X103991567Y-114610040D01*
X103991572Y-114610041D01*
X103998355Y-114612510D01*
X103998334Y-114612567D01*
X104005451Y-114615040D01*
X104005470Y-114614984D01*
X104012324Y-114617254D01*
X104012327Y-114617256D01*
X104086715Y-114632615D01*
X104088352Y-114632978D01*
X104162279Y-114650500D01*
X104162285Y-114650500D01*
X104169452Y-114651338D01*
X104169445Y-114651397D01*
X104176946Y-114652163D01*
X104176952Y-114652104D01*
X104184141Y-114652733D01*
X104184143Y-114652732D01*
X104184144Y-114652733D01*
X104205764Y-114652104D01*
X104260012Y-114650526D01*
X104261815Y-114650500D01*
X112586295Y-114650500D01*
X112604265Y-114651809D01*
X112628023Y-114655289D01*
X112680068Y-114650735D01*
X112685470Y-114650500D01*
X112693704Y-114650500D01*
X112693709Y-114650500D01*
X112725458Y-114646788D01*
X112727075Y-114646622D01*
X112802797Y-114639999D01*
X112802805Y-114639996D01*
X112809866Y-114638539D01*
X112809878Y-114638598D01*
X112817243Y-114636965D01*
X112817229Y-114636906D01*
X112824251Y-114635241D01*
X112824255Y-114635241D01*
X112895587Y-114609277D01*
X112897286Y-114608688D01*
X112969334Y-114584814D01*
X112969342Y-114584808D01*
X112975882Y-114581760D01*
X112975908Y-114581816D01*
X112982690Y-114578532D01*
X112982663Y-114578478D01*
X112989109Y-114575239D01*
X112989117Y-114575237D01*
X113052612Y-114533475D01*
X113053977Y-114532605D01*
X113118656Y-114492712D01*
X113118661Y-114492706D01*
X113124325Y-114488229D01*
X113124362Y-114488277D01*
X113130204Y-114483518D01*
X113130164Y-114483471D01*
X113135686Y-114478835D01*
X113135696Y-114478830D01*
X113187800Y-114423601D01*
X113188994Y-114422372D01*
X114474548Y-113136817D01*
X114535871Y-113103333D01*
X114562229Y-113100499D01*
X115247871Y-113100499D01*
X115247872Y-113100499D01*
X115307483Y-113094091D01*
X115442331Y-113043796D01*
X115557546Y-112957546D01*
X115643796Y-112842331D01*
X115694091Y-112707483D01*
X115700500Y-112647873D01*
X115700499Y-111552128D01*
X115694091Y-111492517D01*
X115668929Y-111425055D01*
X115643797Y-111357671D01*
X115643793Y-111357664D01*
X115557547Y-111242455D01*
X115557544Y-111242452D01*
X115442335Y-111156206D01*
X115442328Y-111156202D01*
X115307482Y-111105908D01*
X115307483Y-111105908D01*
X115247883Y-111099501D01*
X115247881Y-111099500D01*
X115247873Y-111099500D01*
X115247864Y-111099500D01*
X113652129Y-111099500D01*
X113652123Y-111099501D01*
X113592516Y-111105908D01*
X113457671Y-111156202D01*
X113457664Y-111156206D01*
X113342455Y-111242452D01*
X113342452Y-111242455D01*
X113256206Y-111357664D01*
X113256202Y-111357671D01*
X113205908Y-111492517D01*
X113199501Y-111552116D01*
X113199501Y-111552123D01*
X113199500Y-111552135D01*
X113199500Y-112237769D01*
X113179815Y-112304808D01*
X113163181Y-112325450D01*
X112375451Y-113113181D01*
X112314128Y-113146666D01*
X112287770Y-113149500D01*
X110761571Y-113149500D01*
X110694532Y-113129815D01*
X110648777Y-113077011D01*
X110638833Y-113007853D01*
X110662305Y-112951189D01*
X110743793Y-112842335D01*
X110743792Y-112842335D01*
X110743796Y-112842331D01*
X110794091Y-112707483D01*
X110800500Y-112647873D01*
X110800499Y-111552128D01*
X110794091Y-111492517D01*
X110768929Y-111425055D01*
X110743797Y-111357671D01*
X110743793Y-111357664D01*
X110657547Y-111242455D01*
X110657544Y-111242452D01*
X110542335Y-111156206D01*
X110542328Y-111156202D01*
X110407482Y-111105908D01*
X110407483Y-111105908D01*
X110347883Y-111099501D01*
X110347881Y-111099500D01*
X110347873Y-111099500D01*
X110347864Y-111099500D01*
X108752129Y-111099500D01*
X108752123Y-111099501D01*
X108692516Y-111105908D01*
X108557671Y-111156202D01*
X108557664Y-111156206D01*
X108442455Y-111242452D01*
X108442452Y-111242455D01*
X108356206Y-111357664D01*
X108356204Y-111357668D01*
X108356204Y-111357669D01*
X108352039Y-111368834D01*
X108310171Y-111424766D01*
X108244707Y-111449184D01*
X108235859Y-111449500D01*
X107820808Y-111449500D01*
X107753769Y-111429815D01*
X107733127Y-111413181D01*
X105469946Y-109150000D01*
X108300000Y-109150000D01*
X108300000Y-109447844D01*
X108306401Y-109507372D01*
X108306403Y-109507379D01*
X108356645Y-109642086D01*
X108356649Y-109642093D01*
X108442809Y-109757187D01*
X108442812Y-109757190D01*
X108557906Y-109843350D01*
X108557913Y-109843354D01*
X108692620Y-109893596D01*
X108692627Y-109893598D01*
X108752155Y-109899999D01*
X108752172Y-109900000D01*
X109300000Y-109900000D01*
X109300000Y-109150000D01*
X109800000Y-109150000D01*
X109800000Y-109900000D01*
X110347828Y-109900000D01*
X110347844Y-109899999D01*
X110407372Y-109893598D01*
X110407379Y-109893596D01*
X110542086Y-109843354D01*
X110542093Y-109843350D01*
X110657187Y-109757190D01*
X110657190Y-109757187D01*
X110743350Y-109642093D01*
X110743354Y-109642086D01*
X110793596Y-109507379D01*
X110793598Y-109507372D01*
X110799996Y-109447870D01*
X113199500Y-109447870D01*
X113199501Y-109447876D01*
X113205908Y-109507483D01*
X113256202Y-109642328D01*
X113256206Y-109642335D01*
X113342452Y-109757544D01*
X113342455Y-109757547D01*
X113457664Y-109843793D01*
X113457671Y-109843797D01*
X113592517Y-109894091D01*
X113592516Y-109894091D01*
X113599444Y-109894835D01*
X113652127Y-109900500D01*
X115247872Y-109900499D01*
X115307483Y-109894091D01*
X115442331Y-109843796D01*
X115557546Y-109757546D01*
X115643796Y-109642331D01*
X115694091Y-109507483D01*
X115700500Y-109447873D01*
X115700499Y-108352128D01*
X115694091Y-108292517D01*
X115693291Y-108290373D01*
X115643797Y-108157671D01*
X115643793Y-108157664D01*
X115557547Y-108042455D01*
X115557544Y-108042452D01*
X115442335Y-107956206D01*
X115442328Y-107956202D01*
X115307482Y-107905908D01*
X115307483Y-107905908D01*
X115247883Y-107899501D01*
X115247881Y-107899500D01*
X115247873Y-107899500D01*
X115247864Y-107899500D01*
X113652129Y-107899500D01*
X113652123Y-107899501D01*
X113592516Y-107905908D01*
X113457671Y-107956202D01*
X113457664Y-107956206D01*
X113342455Y-108042452D01*
X113342452Y-108042455D01*
X113256206Y-108157664D01*
X113256202Y-108157671D01*
X113205908Y-108292517D01*
X113199874Y-108348644D01*
X113199501Y-108352123D01*
X113199500Y-108352135D01*
X113199500Y-109447870D01*
X110799996Y-109447870D01*
X110799999Y-109447844D01*
X110800000Y-109447827D01*
X110800000Y-109150000D01*
X109800000Y-109150000D01*
X109300000Y-109150000D01*
X108300000Y-109150000D01*
X105469946Y-109150000D01*
X104969946Y-108650000D01*
X108300000Y-108650000D01*
X109300000Y-108650000D01*
X109300000Y-107900000D01*
X109800000Y-107900000D01*
X109800000Y-108650000D01*
X110799999Y-108650000D01*
X110800000Y-108352172D01*
X110799999Y-108352155D01*
X110793598Y-108292627D01*
X110793596Y-108292620D01*
X110743354Y-108157913D01*
X110743350Y-108157906D01*
X110657190Y-108042812D01*
X110657187Y-108042809D01*
X110542093Y-107956649D01*
X110542086Y-107956645D01*
X110407379Y-107906403D01*
X110407372Y-107906401D01*
X110347844Y-107900000D01*
X109800000Y-107900000D01*
X109300000Y-107900000D01*
X108752155Y-107900000D01*
X108692627Y-107906401D01*
X108692620Y-107906403D01*
X108557913Y-107956645D01*
X108557906Y-107956649D01*
X108442812Y-108042809D01*
X108442809Y-108042812D01*
X108356649Y-108157906D01*
X108356645Y-108157913D01*
X108306403Y-108292620D01*
X108306401Y-108292627D01*
X108300000Y-108352155D01*
X108300000Y-108650000D01*
X104969946Y-108650000D01*
X104820434Y-108500488D01*
X104810361Y-108487914D01*
X104810174Y-108488070D01*
X104805198Y-108482055D01*
X104772382Y-108451240D01*
X104753432Y-108433445D01*
X104752058Y-108432112D01*
X104731035Y-108411089D01*
X104725240Y-108406594D01*
X104720798Y-108402799D01*
X104685396Y-108369554D01*
X104685388Y-108369548D01*
X104666792Y-108359325D01*
X104650531Y-108348644D01*
X104633763Y-108335637D01*
X104610295Y-108325482D01*
X104589178Y-108316343D01*
X104583956Y-108313786D01*
X104541368Y-108290373D01*
X104541365Y-108290372D01*
X104520801Y-108285092D01*
X104502396Y-108278790D01*
X104482927Y-108270365D01*
X104482921Y-108270363D01*
X104434951Y-108262766D01*
X104429236Y-108261582D01*
X104412772Y-108257355D01*
X104382180Y-108249500D01*
X104382177Y-108249500D01*
X104360955Y-108249500D01*
X104341555Y-108247973D01*
X104320596Y-108244653D01*
X104320595Y-108244653D01*
X104296786Y-108246903D01*
X104272230Y-108249225D01*
X104266392Y-108249500D01*
X103764141Y-108249500D01*
X103697102Y-108229815D01*
X103651347Y-108177011D01*
X103647969Y-108168859D01*
X103643796Y-108157669D01*
X103643793Y-108157665D01*
X103643793Y-108157664D01*
X103557547Y-108042455D01*
X103557544Y-108042452D01*
X103442335Y-107956206D01*
X103442328Y-107956202D01*
X103307482Y-107905908D01*
X103307483Y-107905908D01*
X103247883Y-107899501D01*
X103247881Y-107899500D01*
X103247873Y-107899500D01*
X103247864Y-107899500D01*
X101652129Y-107899500D01*
X101652123Y-107899501D01*
X101592516Y-107905908D01*
X101457671Y-107956202D01*
X101457664Y-107956206D01*
X101342455Y-108042452D01*
X101342452Y-108042455D01*
X101256206Y-108157664D01*
X101256202Y-108157671D01*
X101205908Y-108292517D01*
X101199874Y-108348644D01*
X101199501Y-108352123D01*
X101199500Y-108352135D01*
X101199500Y-109447870D01*
X101199501Y-109447876D01*
X101205908Y-109507483D01*
X101256202Y-109642328D01*
X101256206Y-109642335D01*
X101342452Y-109757544D01*
X101342455Y-109757547D01*
X101457664Y-109843793D01*
X101457671Y-109843797D01*
X101592517Y-109894091D01*
X101592516Y-109894091D01*
X101599444Y-109894835D01*
X101652127Y-109900500D01*
X103247872Y-109900499D01*
X103307483Y-109894091D01*
X103442331Y-109843796D01*
X103557546Y-109757546D01*
X103643796Y-109642331D01*
X103647960Y-109631165D01*
X103689829Y-109575234D01*
X103755293Y-109550816D01*
X103764141Y-109550500D01*
X103979192Y-109550500D01*
X104046231Y-109570185D01*
X104066873Y-109586819D01*
X106979564Y-112499510D01*
X106989635Y-112512080D01*
X106989822Y-112511926D01*
X106994795Y-112517937D01*
X107046542Y-112566531D01*
X107047909Y-112567855D01*
X107068965Y-112588911D01*
X107068968Y-112588913D01*
X107074757Y-112593405D01*
X107079197Y-112597197D01*
X107108498Y-112624711D01*
X107114607Y-112630448D01*
X107114609Y-112630449D01*
X107133205Y-112640672D01*
X107149470Y-112651357D01*
X107166232Y-112664360D01*
X107166235Y-112664361D01*
X107166236Y-112664362D01*
X107210823Y-112683656D01*
X107216059Y-112686221D01*
X107258632Y-112709627D01*
X107274340Y-112713659D01*
X107279186Y-112714904D01*
X107297598Y-112721207D01*
X107317073Y-112729635D01*
X107365071Y-112737237D01*
X107370740Y-112738411D01*
X107417823Y-112750500D01*
X107439051Y-112750500D01*
X107458448Y-112752026D01*
X107479403Y-112755345D01*
X107479404Y-112755346D01*
X107479404Y-112755345D01*
X107479405Y-112755346D01*
X107527760Y-112750775D01*
X107533599Y-112750500D01*
X108235859Y-112750500D01*
X108302898Y-112770185D01*
X108348653Y-112822989D01*
X108352030Y-112831140D01*
X108356204Y-112842331D01*
X108356205Y-112842332D01*
X108356206Y-112842335D01*
X108437695Y-112951189D01*
X108462113Y-113016653D01*
X108447262Y-113084926D01*
X108397857Y-113134332D01*
X108338429Y-113149500D01*
X104612229Y-113149500D01*
X104545190Y-113129815D01*
X104524548Y-113113181D01*
X103736818Y-112325451D01*
X103703333Y-112264128D01*
X103700499Y-112237770D01*
X103700499Y-111910867D01*
X103700499Y-111552128D01*
X103694091Y-111492517D01*
X103668929Y-111425055D01*
X103643797Y-111357671D01*
X103643793Y-111357664D01*
X103557547Y-111242455D01*
X103557544Y-111242452D01*
X103442335Y-111156206D01*
X103442328Y-111156202D01*
X103307482Y-111105908D01*
X103307483Y-111105908D01*
X103247883Y-111099501D01*
X103247881Y-111099500D01*
X103247873Y-111099500D01*
X103247864Y-111099500D01*
X101652129Y-111099500D01*
X101652123Y-111099501D01*
X101592516Y-111105908D01*
X101457671Y-111156202D01*
X101457664Y-111156206D01*
X101342455Y-111242452D01*
X101342452Y-111242455D01*
X101256206Y-111357664D01*
X101256202Y-111357671D01*
X101205908Y-111492517D01*
X101199501Y-111552116D01*
X101199501Y-111552123D01*
X101199500Y-111552135D01*
X101199500Y-112237769D01*
X101179815Y-112304808D01*
X101163181Y-112325450D01*
X100375451Y-113113181D01*
X100314128Y-113146666D01*
X100287770Y-113149500D01*
X98761571Y-113149500D01*
X98694532Y-113129815D01*
X98648777Y-113077011D01*
X98638833Y-113007853D01*
X98662305Y-112951189D01*
X98743793Y-112842335D01*
X98743792Y-112842335D01*
X98743796Y-112842331D01*
X98794091Y-112707483D01*
X98800500Y-112647873D01*
X98800499Y-111552128D01*
X98794091Y-111492517D01*
X98768929Y-111425055D01*
X98743797Y-111357671D01*
X98743793Y-111357664D01*
X98657547Y-111242455D01*
X98657544Y-111242452D01*
X98542335Y-111156206D01*
X98542328Y-111156202D01*
X98407482Y-111105908D01*
X98407483Y-111105908D01*
X98347883Y-111099501D01*
X98347881Y-111099500D01*
X98347873Y-111099500D01*
X98347864Y-111099500D01*
X96752129Y-111099500D01*
X96752123Y-111099501D01*
X96692516Y-111105908D01*
X96557671Y-111156202D01*
X96557664Y-111156206D01*
X96442455Y-111242452D01*
X96442452Y-111242455D01*
X96356206Y-111357664D01*
X96356204Y-111357668D01*
X96356204Y-111357669D01*
X96352039Y-111368834D01*
X96310171Y-111424766D01*
X96244707Y-111449184D01*
X96235859Y-111449500D01*
X95720808Y-111449500D01*
X95653769Y-111429815D01*
X95633127Y-111413181D01*
X93369946Y-109150000D01*
X96300000Y-109150000D01*
X96300000Y-109447844D01*
X96306401Y-109507372D01*
X96306403Y-109507379D01*
X96356645Y-109642086D01*
X96356649Y-109642093D01*
X96442809Y-109757187D01*
X96442812Y-109757190D01*
X96557906Y-109843350D01*
X96557913Y-109843354D01*
X96692620Y-109893596D01*
X96692627Y-109893598D01*
X96752155Y-109899999D01*
X96752172Y-109900000D01*
X97300000Y-109900000D01*
X97300000Y-109150000D01*
X97800000Y-109150000D01*
X97800000Y-109900000D01*
X98347828Y-109900000D01*
X98347844Y-109899999D01*
X98407372Y-109893598D01*
X98407379Y-109893596D01*
X98542086Y-109843354D01*
X98542093Y-109843350D01*
X98657187Y-109757190D01*
X98657190Y-109757187D01*
X98743350Y-109642093D01*
X98743354Y-109642086D01*
X98793596Y-109507379D01*
X98793598Y-109507372D01*
X98799999Y-109447844D01*
X98800000Y-109447827D01*
X98800000Y-109150000D01*
X97800000Y-109150000D01*
X97300000Y-109150000D01*
X96300000Y-109150000D01*
X93369946Y-109150000D01*
X92869946Y-108650000D01*
X96300000Y-108650000D01*
X97300000Y-108650000D01*
X97300000Y-107900000D01*
X97800000Y-107900000D01*
X97800000Y-108650000D01*
X98800000Y-108650000D01*
X98800000Y-108352172D01*
X98799999Y-108352155D01*
X98793598Y-108292627D01*
X98793596Y-108292620D01*
X98743354Y-108157913D01*
X98743350Y-108157906D01*
X98657190Y-108042812D01*
X98657187Y-108042809D01*
X98542093Y-107956649D01*
X98542086Y-107956645D01*
X98407379Y-107906403D01*
X98407372Y-107906401D01*
X98347844Y-107900000D01*
X97800000Y-107900000D01*
X97300000Y-107900000D01*
X96752155Y-107900000D01*
X96692627Y-107906401D01*
X96692620Y-107906403D01*
X96557913Y-107956645D01*
X96557906Y-107956649D01*
X96442812Y-108042809D01*
X96442809Y-108042812D01*
X96356649Y-108157906D01*
X96356645Y-108157913D01*
X96306403Y-108292620D01*
X96306401Y-108292627D01*
X96300000Y-108352155D01*
X96300000Y-108650000D01*
X92869946Y-108650000D01*
X92720434Y-108500488D01*
X92710361Y-108487914D01*
X92710174Y-108488070D01*
X92705198Y-108482055D01*
X92672382Y-108451240D01*
X92653432Y-108433445D01*
X92652058Y-108432112D01*
X92631035Y-108411089D01*
X92625240Y-108406594D01*
X92620798Y-108402799D01*
X92585396Y-108369554D01*
X92585388Y-108369548D01*
X92566792Y-108359325D01*
X92550531Y-108348644D01*
X92533763Y-108335637D01*
X92510295Y-108325482D01*
X92489178Y-108316343D01*
X92483956Y-108313786D01*
X92441368Y-108290373D01*
X92441365Y-108290372D01*
X92420801Y-108285092D01*
X92402396Y-108278790D01*
X92382927Y-108270365D01*
X92382921Y-108270363D01*
X92334951Y-108262766D01*
X92329236Y-108261582D01*
X92312772Y-108257355D01*
X92282180Y-108249500D01*
X92282177Y-108249500D01*
X92260955Y-108249500D01*
X92241555Y-108247973D01*
X92220596Y-108244653D01*
X92220595Y-108244653D01*
X92196786Y-108246903D01*
X92172230Y-108249225D01*
X92166392Y-108249500D01*
X91764141Y-108249500D01*
X91697102Y-108229815D01*
X91651347Y-108177011D01*
X91647969Y-108168859D01*
X91643796Y-108157669D01*
X91643793Y-108157665D01*
X91643793Y-108157664D01*
X91557547Y-108042455D01*
X91557544Y-108042452D01*
X91442335Y-107956206D01*
X91442328Y-107956202D01*
X91307482Y-107905908D01*
X91307483Y-107905908D01*
X91247883Y-107899501D01*
X91247881Y-107899500D01*
X91247873Y-107899500D01*
X91247864Y-107899500D01*
X89652129Y-107899500D01*
X89652123Y-107899501D01*
X89592516Y-107905908D01*
X89457671Y-107956202D01*
X89457664Y-107956206D01*
X89342455Y-108042452D01*
X89342452Y-108042455D01*
X89256206Y-108157664D01*
X89256202Y-108157671D01*
X89205908Y-108292517D01*
X89199874Y-108348644D01*
X89199501Y-108352123D01*
X89199500Y-108352135D01*
X89199500Y-109447870D01*
X89199501Y-109447876D01*
X89202916Y-109479643D01*
X89190509Y-109548403D01*
X89142898Y-109599539D01*
X89075198Y-109616817D01*
X89008904Y-109594751D01*
X88991945Y-109580577D01*
X88786819Y-109375451D01*
X88753334Y-109314128D01*
X88750500Y-109287770D01*
X88750500Y-101850000D01*
X89200000Y-101850000D01*
X89200000Y-102147844D01*
X89206401Y-102207372D01*
X89206403Y-102207379D01*
X89256645Y-102342086D01*
X89256649Y-102342093D01*
X89342809Y-102457187D01*
X89342812Y-102457190D01*
X89457906Y-102543350D01*
X89457913Y-102543354D01*
X89592620Y-102593596D01*
X89592627Y-102593598D01*
X89652155Y-102599999D01*
X89652172Y-102600000D01*
X90199999Y-102600000D01*
X90200000Y-101850000D01*
X90700000Y-101850000D01*
X90700000Y-102600000D01*
X91247828Y-102600000D01*
X91247844Y-102599999D01*
X91307372Y-102593598D01*
X91307379Y-102593596D01*
X91442086Y-102543354D01*
X91442093Y-102543350D01*
X91557187Y-102457190D01*
X91557190Y-102457187D01*
X91643350Y-102342093D01*
X91643354Y-102342086D01*
X91693596Y-102207379D01*
X91693598Y-102207372D01*
X91699999Y-102147844D01*
X91700000Y-102147827D01*
X91700000Y-101850000D01*
X90700000Y-101850000D01*
X90200000Y-101850000D01*
X89200000Y-101850000D01*
X88750500Y-101850000D01*
X88750500Y-101350000D01*
X89200000Y-101350000D01*
X90199999Y-101350000D01*
X90200000Y-100600000D01*
X90700000Y-100600000D01*
X90700000Y-101350000D01*
X91700000Y-101350000D01*
X91700000Y-101052172D01*
X91699999Y-101052155D01*
X91693598Y-100992627D01*
X91693596Y-100992620D01*
X91643354Y-100857913D01*
X91643350Y-100857906D01*
X91557190Y-100742812D01*
X91557187Y-100742809D01*
X91442093Y-100656649D01*
X91442086Y-100656645D01*
X91307379Y-100606403D01*
X91307372Y-100606401D01*
X91247844Y-100600000D01*
X90700000Y-100600000D01*
X90200000Y-100600000D01*
X89652155Y-100600000D01*
X89592627Y-100606401D01*
X89592620Y-100606403D01*
X89457913Y-100656645D01*
X89457906Y-100656649D01*
X89342812Y-100742809D01*
X89342809Y-100742812D01*
X89256649Y-100857906D01*
X89256645Y-100857913D01*
X89206403Y-100992620D01*
X89206401Y-100992627D01*
X89200000Y-101052155D01*
X89200000Y-101350000D01*
X88750500Y-101350000D01*
X88750500Y-100863705D01*
X88751809Y-100845736D01*
X88754184Y-100829522D01*
X88755289Y-100821977D01*
X88750735Y-100769931D01*
X88750500Y-100764528D01*
X88750500Y-100756296D01*
X88750500Y-100756291D01*
X88746795Y-100724602D01*
X88746618Y-100722876D01*
X88739999Y-100647203D01*
X88739999Y-100647201D01*
X88738539Y-100640129D01*
X88738597Y-100640116D01*
X88736965Y-100632757D01*
X88736906Y-100632772D01*
X88735241Y-100625751D01*
X88735241Y-100625745D01*
X88709267Y-100554382D01*
X88708691Y-100552723D01*
X88684814Y-100480666D01*
X88684810Y-100480659D01*
X88681760Y-100474118D01*
X88681815Y-100474091D01*
X88678533Y-100467313D01*
X88678480Y-100467340D01*
X88675236Y-100460881D01*
X88633529Y-100397470D01*
X88632560Y-100395949D01*
X88592710Y-100331342D01*
X88588234Y-100325682D01*
X88588281Y-100325644D01*
X88583519Y-100319799D01*
X88583474Y-100319838D01*
X88578831Y-100314305D01*
X88523616Y-100262212D01*
X88522356Y-100260989D01*
X87209238Y-98947870D01*
X89199500Y-98947870D01*
X89199501Y-98947876D01*
X89205908Y-99007483D01*
X89256202Y-99142328D01*
X89256206Y-99142335D01*
X89342452Y-99257544D01*
X89342455Y-99257547D01*
X89457664Y-99343793D01*
X89457671Y-99343797D01*
X89592517Y-99394091D01*
X89592516Y-99394091D01*
X89599444Y-99394835D01*
X89652127Y-99400500D01*
X91247872Y-99400499D01*
X91307483Y-99394091D01*
X91442331Y-99343796D01*
X91557546Y-99257546D01*
X91643796Y-99142331D01*
X91647960Y-99131165D01*
X91689829Y-99075234D01*
X91755293Y-99050816D01*
X91764141Y-99050500D01*
X91779192Y-99050500D01*
X91846231Y-99070185D01*
X91866873Y-99086819D01*
X94779564Y-101999510D01*
X94789635Y-102012080D01*
X94789822Y-102011926D01*
X94794795Y-102017937D01*
X94846542Y-102066531D01*
X94847909Y-102067855D01*
X94868965Y-102088911D01*
X94868968Y-102088913D01*
X94874757Y-102093405D01*
X94879197Y-102097197D01*
X94908498Y-102124711D01*
X94914607Y-102130448D01*
X94914609Y-102130449D01*
X94933205Y-102140672D01*
X94949470Y-102151357D01*
X94966232Y-102164360D01*
X94966235Y-102164361D01*
X94966236Y-102164362D01*
X95010823Y-102183656D01*
X95016059Y-102186221D01*
X95058632Y-102209627D01*
X95074340Y-102213659D01*
X95079186Y-102214904D01*
X95097598Y-102221207D01*
X95117073Y-102229635D01*
X95165071Y-102237237D01*
X95170740Y-102238411D01*
X95217823Y-102250500D01*
X95239051Y-102250500D01*
X95258448Y-102252026D01*
X95279403Y-102255345D01*
X95279404Y-102255346D01*
X95279404Y-102255345D01*
X95279405Y-102255346D01*
X95327760Y-102250775D01*
X95333599Y-102250500D01*
X96235859Y-102250500D01*
X96302898Y-102270185D01*
X96348653Y-102322989D01*
X96352030Y-102331140D01*
X96356204Y-102342331D01*
X96356205Y-102342332D01*
X96356206Y-102342335D01*
X96442452Y-102457544D01*
X96442455Y-102457547D01*
X96557664Y-102543793D01*
X96557671Y-102543797D01*
X96692517Y-102594091D01*
X96692516Y-102594091D01*
X96699444Y-102594835D01*
X96752127Y-102600500D01*
X98347872Y-102600499D01*
X98407483Y-102594091D01*
X98542331Y-102543796D01*
X98657546Y-102457546D01*
X98743796Y-102342331D01*
X98794091Y-102207483D01*
X98800500Y-102147873D01*
X98800500Y-101850000D01*
X101200000Y-101850000D01*
X101200000Y-102147844D01*
X101206401Y-102207372D01*
X101206403Y-102207379D01*
X101256645Y-102342086D01*
X101256649Y-102342093D01*
X101342809Y-102457187D01*
X101342812Y-102457190D01*
X101457906Y-102543350D01*
X101457913Y-102543354D01*
X101592620Y-102593596D01*
X101592627Y-102593598D01*
X101652155Y-102599999D01*
X101652172Y-102600000D01*
X102199999Y-102600000D01*
X102200000Y-101850000D01*
X102700000Y-101850000D01*
X102700000Y-102600000D01*
X103247828Y-102600000D01*
X103247844Y-102599999D01*
X103307372Y-102593598D01*
X103307379Y-102593596D01*
X103442086Y-102543354D01*
X103442093Y-102543350D01*
X103557187Y-102457190D01*
X103557190Y-102457187D01*
X103643350Y-102342093D01*
X103643354Y-102342086D01*
X103693596Y-102207379D01*
X103693598Y-102207372D01*
X103699999Y-102147844D01*
X103700000Y-102147827D01*
X103700000Y-101850000D01*
X102700000Y-101850000D01*
X102200000Y-101850000D01*
X101200000Y-101850000D01*
X98800500Y-101850000D01*
X98800499Y-101349999D01*
X101199999Y-101349999D01*
X101200000Y-101350000D01*
X102199999Y-101350000D01*
X102200000Y-100600000D01*
X102700000Y-100600000D01*
X102700000Y-101350000D01*
X103700000Y-101350000D01*
X103700000Y-101052172D01*
X103699999Y-101052155D01*
X103693598Y-100992627D01*
X103693596Y-100992620D01*
X103643354Y-100857913D01*
X103643350Y-100857906D01*
X103557190Y-100742812D01*
X103557187Y-100742809D01*
X103442093Y-100656649D01*
X103442086Y-100656645D01*
X103307379Y-100606403D01*
X103307372Y-100606401D01*
X103247844Y-100600000D01*
X102700000Y-100600000D01*
X102200000Y-100600000D01*
X101652155Y-100600000D01*
X101592627Y-100606401D01*
X101592620Y-100606403D01*
X101457913Y-100656645D01*
X101457906Y-100656649D01*
X101342812Y-100742809D01*
X101342809Y-100742812D01*
X101256649Y-100857906D01*
X101256645Y-100857913D01*
X101206403Y-100992620D01*
X101206401Y-100992627D01*
X101200000Y-101052155D01*
X101200000Y-101052172D01*
X101199999Y-101349999D01*
X98800499Y-101349999D01*
X98800499Y-101052128D01*
X98794091Y-100992517D01*
X98793130Y-100989941D01*
X98743797Y-100857671D01*
X98743793Y-100857664D01*
X98657547Y-100742455D01*
X98657544Y-100742452D01*
X98542335Y-100656206D01*
X98542328Y-100656202D01*
X98407482Y-100605908D01*
X98407483Y-100605908D01*
X98347883Y-100599501D01*
X98347881Y-100599500D01*
X98347873Y-100599500D01*
X98347864Y-100599500D01*
X96752129Y-100599500D01*
X96752123Y-100599501D01*
X96692516Y-100605908D01*
X96557671Y-100656202D01*
X96557664Y-100656206D01*
X96442455Y-100742452D01*
X96442452Y-100742455D01*
X96356206Y-100857664D01*
X96356204Y-100857668D01*
X96356204Y-100857669D01*
X96352039Y-100868834D01*
X96310171Y-100924766D01*
X96244707Y-100949184D01*
X96235859Y-100949500D01*
X95620808Y-100949500D01*
X95553769Y-100929815D01*
X95533127Y-100913181D01*
X92620434Y-98000488D01*
X92610361Y-97987914D01*
X92610174Y-97988070D01*
X92605198Y-97982055D01*
X92572382Y-97951240D01*
X92553432Y-97933445D01*
X92552058Y-97932112D01*
X92531035Y-97911089D01*
X92525240Y-97906594D01*
X92520798Y-97902799D01*
X92485396Y-97869554D01*
X92485388Y-97869548D01*
X92466792Y-97859325D01*
X92450531Y-97848644D01*
X92433763Y-97835637D01*
X92410295Y-97825482D01*
X92389178Y-97816343D01*
X92383956Y-97813786D01*
X92341368Y-97790373D01*
X92341365Y-97790372D01*
X92320801Y-97785092D01*
X92302396Y-97778790D01*
X92282927Y-97770365D01*
X92282921Y-97770363D01*
X92234951Y-97762766D01*
X92229236Y-97761582D01*
X92212772Y-97757355D01*
X92182180Y-97749500D01*
X92182177Y-97749500D01*
X92160955Y-97749500D01*
X92141555Y-97747973D01*
X92120596Y-97744653D01*
X92120595Y-97744653D01*
X92096786Y-97746903D01*
X92072230Y-97749225D01*
X92066392Y-97749500D01*
X91764141Y-97749500D01*
X91697102Y-97729815D01*
X91651347Y-97677011D01*
X91647969Y-97668859D01*
X91643796Y-97657669D01*
X91643793Y-97657665D01*
X91643793Y-97657664D01*
X91557547Y-97542455D01*
X91557544Y-97542452D01*
X91442335Y-97456206D01*
X91442328Y-97456202D01*
X91307482Y-97405908D01*
X91307483Y-97405908D01*
X91247883Y-97399501D01*
X91247881Y-97399500D01*
X91247873Y-97399500D01*
X91247864Y-97399500D01*
X89652129Y-97399500D01*
X89652123Y-97399501D01*
X89592516Y-97405908D01*
X89457671Y-97456202D01*
X89457664Y-97456206D01*
X89342455Y-97542452D01*
X89342452Y-97542455D01*
X89256206Y-97657664D01*
X89256202Y-97657671D01*
X89205908Y-97792517D01*
X89199874Y-97848644D01*
X89199501Y-97852123D01*
X89199500Y-97852135D01*
X89199500Y-98947870D01*
X87209238Y-98947870D01*
X86836818Y-98575450D01*
X86803333Y-98514127D01*
X86800499Y-98487769D01*
X86800499Y-98262230D01*
X86820184Y-98195191D01*
X86836818Y-98174549D01*
X89724549Y-95286819D01*
X89785872Y-95253334D01*
X89812230Y-95250500D01*
X93810661Y-95250500D01*
X93826946Y-95252163D01*
X93826952Y-95252104D01*
X93834141Y-95252733D01*
X93834143Y-95252732D01*
X93834144Y-95252733D01*
X93855764Y-95252104D01*
X93910012Y-95250526D01*
X93911815Y-95250500D01*
X96988769Y-95250500D01*
X97055808Y-95270185D01*
X97101563Y-95322989D01*
X97111507Y-95392147D01*
X97082482Y-95455703D01*
X97076459Y-95462171D01*
X97064708Y-95473922D01*
X97064355Y-95474276D01*
X97050729Y-95486051D01*
X97031468Y-95500390D01*
X96997898Y-95540397D01*
X96994253Y-95544376D01*
X96988407Y-95550223D01*
X96968618Y-95575251D01*
X96967481Y-95576647D01*
X96918694Y-95634790D01*
X96914729Y-95640819D01*
X96914682Y-95640788D01*
X96910630Y-95647147D01*
X96910679Y-95647177D01*
X96906889Y-95653321D01*
X96874812Y-95722110D01*
X96874027Y-95723731D01*
X96839957Y-95791572D01*
X96837488Y-95798357D01*
X96837432Y-95798336D01*
X96834960Y-95805450D01*
X96835015Y-95805469D01*
X96832743Y-95812325D01*
X96817391Y-95886670D01*
X96817001Y-95888428D01*
X96799499Y-95962279D01*
X96798661Y-95969454D01*
X96798601Y-95969447D01*
X96797835Y-95976946D01*
X96797895Y-95976952D01*
X96797265Y-95984141D01*
X96799473Y-96060029D01*
X96799499Y-96061832D01*
X96799499Y-97283023D01*
X96779814Y-97350062D01*
X96727010Y-97395817D01*
X96699865Y-97403266D01*
X96700068Y-97404124D01*
X96692520Y-97405907D01*
X96557671Y-97456202D01*
X96557664Y-97456206D01*
X96442455Y-97542452D01*
X96442452Y-97542455D01*
X96356206Y-97657664D01*
X96356202Y-97657671D01*
X96305908Y-97792517D01*
X96299874Y-97848644D01*
X96299501Y-97852123D01*
X96299500Y-97852135D01*
X96299500Y-98947870D01*
X96299501Y-98947876D01*
X96305908Y-99007483D01*
X96356202Y-99142328D01*
X96356206Y-99142335D01*
X96442452Y-99257544D01*
X96442455Y-99257547D01*
X96557664Y-99343793D01*
X96557671Y-99343797D01*
X96692517Y-99394091D01*
X96692516Y-99394091D01*
X96699444Y-99394835D01*
X96752127Y-99400500D01*
X98347872Y-99400499D01*
X98407483Y-99394091D01*
X98542331Y-99343796D01*
X98657546Y-99257546D01*
X98743796Y-99142331D01*
X98794091Y-99007483D01*
X98800500Y-98947873D01*
X98800500Y-98947870D01*
X101199500Y-98947870D01*
X101199501Y-98947876D01*
X101205908Y-99007483D01*
X101256202Y-99142328D01*
X101256206Y-99142335D01*
X101342452Y-99257544D01*
X101342455Y-99257547D01*
X101457664Y-99343793D01*
X101457671Y-99343797D01*
X101592517Y-99394091D01*
X101592516Y-99394091D01*
X101599444Y-99394835D01*
X101652127Y-99400500D01*
X103247872Y-99400499D01*
X103307483Y-99394091D01*
X103442331Y-99343796D01*
X103557546Y-99257546D01*
X103643796Y-99142331D01*
X103647960Y-99131165D01*
X103689829Y-99075234D01*
X103755293Y-99050816D01*
X103764141Y-99050500D01*
X104079192Y-99050500D01*
X104146231Y-99070185D01*
X104166873Y-99086819D01*
X107079564Y-101999510D01*
X107089635Y-102012080D01*
X107089822Y-102011926D01*
X107094795Y-102017937D01*
X107146542Y-102066531D01*
X107147909Y-102067855D01*
X107168965Y-102088911D01*
X107168968Y-102088913D01*
X107174757Y-102093405D01*
X107179197Y-102097197D01*
X107208498Y-102124711D01*
X107214607Y-102130448D01*
X107214609Y-102130449D01*
X107233205Y-102140672D01*
X107249470Y-102151357D01*
X107266232Y-102164360D01*
X107266235Y-102164361D01*
X107266236Y-102164362D01*
X107310823Y-102183656D01*
X107316059Y-102186221D01*
X107358632Y-102209627D01*
X107374340Y-102213659D01*
X107379186Y-102214904D01*
X107397598Y-102221207D01*
X107417073Y-102229635D01*
X107465071Y-102237237D01*
X107470740Y-102238411D01*
X107517823Y-102250500D01*
X107539051Y-102250500D01*
X107558448Y-102252026D01*
X107579403Y-102255345D01*
X107579404Y-102255346D01*
X107579404Y-102255345D01*
X107579405Y-102255346D01*
X107627760Y-102250775D01*
X107633599Y-102250500D01*
X108235859Y-102250500D01*
X108302898Y-102270185D01*
X108348653Y-102322989D01*
X108352030Y-102331140D01*
X108356204Y-102342331D01*
X108356205Y-102342332D01*
X108356206Y-102342335D01*
X108442452Y-102457544D01*
X108442455Y-102457547D01*
X108557664Y-102543793D01*
X108557671Y-102543797D01*
X108692517Y-102594091D01*
X108692516Y-102594091D01*
X108699444Y-102594835D01*
X108752127Y-102600500D01*
X110347872Y-102600499D01*
X110407483Y-102594091D01*
X110542331Y-102543796D01*
X110657546Y-102457546D01*
X110743796Y-102342331D01*
X110794091Y-102207483D01*
X110800500Y-102147873D01*
X110800500Y-101850000D01*
X113200000Y-101850000D01*
X113200000Y-102147844D01*
X113206401Y-102207372D01*
X113206403Y-102207379D01*
X113256645Y-102342086D01*
X113256649Y-102342093D01*
X113342809Y-102457187D01*
X113342812Y-102457190D01*
X113457906Y-102543350D01*
X113457913Y-102543354D01*
X113592620Y-102593596D01*
X113592627Y-102593598D01*
X113652155Y-102599999D01*
X113652172Y-102600000D01*
X114199999Y-102600000D01*
X114200000Y-101850000D01*
X114700000Y-101850000D01*
X114700000Y-102600000D01*
X115247828Y-102600000D01*
X115247844Y-102599999D01*
X115307372Y-102593598D01*
X115307379Y-102593596D01*
X115442086Y-102543354D01*
X115442093Y-102543350D01*
X115557187Y-102457190D01*
X115557190Y-102457187D01*
X115643350Y-102342093D01*
X115643354Y-102342086D01*
X115693596Y-102207379D01*
X115693598Y-102207372D01*
X115699999Y-102147844D01*
X115700000Y-102147827D01*
X115700000Y-101850000D01*
X114700000Y-101850000D01*
X114200000Y-101850000D01*
X113200000Y-101850000D01*
X110800500Y-101850000D01*
X110800499Y-101350000D01*
X113200000Y-101350000D01*
X114199999Y-101350000D01*
X114200000Y-100600000D01*
X114700000Y-100600000D01*
X114700000Y-101350000D01*
X115700000Y-101350000D01*
X115700000Y-101052172D01*
X115699999Y-101052155D01*
X115693598Y-100992627D01*
X115693596Y-100992620D01*
X115643354Y-100857913D01*
X115643350Y-100857906D01*
X115557190Y-100742812D01*
X115557187Y-100742809D01*
X115442093Y-100656649D01*
X115442086Y-100656645D01*
X115307379Y-100606403D01*
X115307372Y-100606401D01*
X115247844Y-100600000D01*
X114700000Y-100600000D01*
X114200000Y-100600000D01*
X113652155Y-100600000D01*
X113592627Y-100606401D01*
X113592620Y-100606403D01*
X113457913Y-100656645D01*
X113457906Y-100656649D01*
X113342812Y-100742809D01*
X113342809Y-100742812D01*
X113256649Y-100857906D01*
X113256645Y-100857913D01*
X113206403Y-100992620D01*
X113206401Y-100992627D01*
X113200000Y-101052155D01*
X113200000Y-101350000D01*
X110800499Y-101350000D01*
X110800499Y-101052128D01*
X110794091Y-100992517D01*
X110793130Y-100989941D01*
X110743797Y-100857671D01*
X110743793Y-100857664D01*
X110657547Y-100742455D01*
X110657544Y-100742452D01*
X110542335Y-100656206D01*
X110542328Y-100656202D01*
X110407482Y-100605908D01*
X110407483Y-100605908D01*
X110347883Y-100599501D01*
X110347881Y-100599500D01*
X110347873Y-100599500D01*
X110347864Y-100599500D01*
X108752129Y-100599500D01*
X108752123Y-100599501D01*
X108692516Y-100605908D01*
X108557671Y-100656202D01*
X108557664Y-100656206D01*
X108442455Y-100742452D01*
X108442452Y-100742455D01*
X108356206Y-100857664D01*
X108356204Y-100857668D01*
X108356204Y-100857669D01*
X108352039Y-100868834D01*
X108310171Y-100924766D01*
X108244707Y-100949184D01*
X108235859Y-100949500D01*
X107920808Y-100949500D01*
X107853769Y-100929815D01*
X107833127Y-100913181D01*
X106919947Y-100000001D01*
X119694532Y-100000001D01*
X119714364Y-100226686D01*
X119714366Y-100226697D01*
X119773258Y-100446488D01*
X119773261Y-100446497D01*
X119869431Y-100652732D01*
X119869432Y-100652734D01*
X119999954Y-100839141D01*
X120160858Y-101000045D01*
X120160861Y-101000047D01*
X120347266Y-101130568D01*
X120553504Y-101226739D01*
X120773308Y-101285635D01*
X120943214Y-101300499D01*
X120943215Y-101300500D01*
X121056784Y-101300500D01*
X121056785Y-101300500D01*
X121056785Y-101300499D01*
X121226692Y-101285635D01*
X121446496Y-101226739D01*
X121652734Y-101130568D01*
X121839139Y-101000047D01*
X122000047Y-100839139D01*
X122130568Y-100652734D01*
X122226739Y-100446496D01*
X122285635Y-100226692D01*
X122305468Y-100000000D01*
X122285635Y-99773308D01*
X122226739Y-99553504D01*
X122130568Y-99347266D01*
X122000047Y-99160861D01*
X122000045Y-99160858D01*
X121839141Y-98999954D01*
X121652734Y-98869432D01*
X121652732Y-98869431D01*
X121446497Y-98773261D01*
X121446488Y-98773258D01*
X121226697Y-98714366D01*
X121226687Y-98714364D01*
X121056785Y-98699500D01*
X121056784Y-98699500D01*
X120943216Y-98699500D01*
X120943215Y-98699500D01*
X120773312Y-98714364D01*
X120773302Y-98714366D01*
X120553511Y-98773258D01*
X120553502Y-98773261D01*
X120347267Y-98869431D01*
X120347265Y-98869432D01*
X120160858Y-98999954D01*
X119999954Y-99160858D01*
X119869432Y-99347265D01*
X119869431Y-99347267D01*
X119773261Y-99553502D01*
X119773258Y-99553511D01*
X119714366Y-99773302D01*
X119714364Y-99773313D01*
X119694532Y-99999998D01*
X119694532Y-100000001D01*
X106919947Y-100000001D01*
X104920434Y-98000488D01*
X104910361Y-97987914D01*
X104910174Y-97988070D01*
X104905198Y-97982055D01*
X104872382Y-97951240D01*
X104853432Y-97933445D01*
X104852058Y-97932112D01*
X104831035Y-97911089D01*
X104825240Y-97906594D01*
X104820798Y-97902799D01*
X104785396Y-97869554D01*
X104785388Y-97869548D01*
X104766792Y-97859325D01*
X104750531Y-97848644D01*
X104733763Y-97835637D01*
X104710295Y-97825482D01*
X104689178Y-97816343D01*
X104683956Y-97813786D01*
X104641368Y-97790373D01*
X104641365Y-97790372D01*
X104620801Y-97785092D01*
X104602396Y-97778790D01*
X104582927Y-97770365D01*
X104582921Y-97770363D01*
X104534951Y-97762766D01*
X104529236Y-97761582D01*
X104512772Y-97757355D01*
X104482180Y-97749500D01*
X104482177Y-97749500D01*
X104460955Y-97749500D01*
X104441555Y-97747973D01*
X104420596Y-97744653D01*
X104420595Y-97744653D01*
X104396786Y-97746903D01*
X104372230Y-97749225D01*
X104366392Y-97749500D01*
X103764141Y-97749500D01*
X103697102Y-97729815D01*
X103651347Y-97677011D01*
X103647969Y-97668859D01*
X103643796Y-97657669D01*
X103643793Y-97657665D01*
X103643793Y-97657664D01*
X103557547Y-97542455D01*
X103557544Y-97542452D01*
X103442335Y-97456206D01*
X103442328Y-97456202D01*
X103307482Y-97405908D01*
X103307483Y-97405908D01*
X103247883Y-97399501D01*
X103247881Y-97399500D01*
X103247873Y-97399500D01*
X103247864Y-97399500D01*
X101652129Y-97399500D01*
X101652123Y-97399501D01*
X101592516Y-97405908D01*
X101457671Y-97456202D01*
X101457664Y-97456206D01*
X101342455Y-97542452D01*
X101342452Y-97542455D01*
X101256206Y-97657664D01*
X101256202Y-97657671D01*
X101205908Y-97792517D01*
X101199874Y-97848644D01*
X101199501Y-97852123D01*
X101199500Y-97852135D01*
X101199500Y-98947870D01*
X98800500Y-98947870D01*
X98800499Y-97852128D01*
X98794091Y-97792517D01*
X98793291Y-97790373D01*
X98743797Y-97657671D01*
X98743793Y-97657664D01*
X98657547Y-97542455D01*
X98657544Y-97542452D01*
X98542335Y-97456206D01*
X98542328Y-97456202D01*
X98407482Y-97405908D01*
X98399938Y-97404126D01*
X98400474Y-97401853D01*
X98346688Y-97379571D01*
X98306843Y-97322177D01*
X98300500Y-97283024D01*
X98300500Y-96412230D01*
X98320185Y-96345191D01*
X98336819Y-96324549D01*
X99374549Y-95286819D01*
X99435872Y-95253334D01*
X99462230Y-95250500D01*
X108933278Y-95250500D01*
X109000317Y-95270185D01*
X109046072Y-95322989D01*
X109056016Y-95392147D01*
X109028266Y-95454208D01*
X108997897Y-95490398D01*
X108994253Y-95494376D01*
X108988407Y-95500223D01*
X108968618Y-95525251D01*
X108967481Y-95526647D01*
X108918694Y-95584790D01*
X108914729Y-95590819D01*
X108914682Y-95590788D01*
X108910630Y-95597147D01*
X108910679Y-95597177D01*
X108906889Y-95603321D01*
X108874812Y-95672110D01*
X108874027Y-95673731D01*
X108839957Y-95741572D01*
X108837488Y-95748357D01*
X108837432Y-95748336D01*
X108834960Y-95755450D01*
X108835015Y-95755469D01*
X108832743Y-95762325D01*
X108817391Y-95836670D01*
X108817001Y-95838428D01*
X108799499Y-95912279D01*
X108798661Y-95919454D01*
X108798601Y-95919447D01*
X108797835Y-95926945D01*
X108797895Y-95926951D01*
X108797265Y-95934141D01*
X108799473Y-96010031D01*
X108799499Y-96011834D01*
X108799499Y-97283023D01*
X108779814Y-97350062D01*
X108727010Y-97395817D01*
X108699865Y-97403266D01*
X108700068Y-97404124D01*
X108692520Y-97405907D01*
X108557671Y-97456202D01*
X108557664Y-97456206D01*
X108442455Y-97542452D01*
X108442452Y-97542455D01*
X108356206Y-97657664D01*
X108356202Y-97657671D01*
X108305908Y-97792517D01*
X108299874Y-97848644D01*
X108299501Y-97852123D01*
X108299500Y-97852135D01*
X108299500Y-98947870D01*
X108299501Y-98947876D01*
X108305908Y-99007483D01*
X108356202Y-99142328D01*
X108356206Y-99142335D01*
X108442452Y-99257544D01*
X108442455Y-99257547D01*
X108557664Y-99343793D01*
X108557671Y-99343797D01*
X108692517Y-99394091D01*
X108692516Y-99394091D01*
X108699444Y-99394835D01*
X108752127Y-99400500D01*
X110347872Y-99400499D01*
X110407483Y-99394091D01*
X110542331Y-99343796D01*
X110657546Y-99257546D01*
X110743796Y-99142331D01*
X110794091Y-99007483D01*
X110800500Y-98947873D01*
X110800499Y-97852128D01*
X110794091Y-97792517D01*
X110793291Y-97790373D01*
X110743797Y-97657671D01*
X110743793Y-97657664D01*
X110657547Y-97542455D01*
X110657544Y-97542452D01*
X110542335Y-97456206D01*
X110542328Y-97456202D01*
X110407482Y-97405908D01*
X110399938Y-97404126D01*
X110400474Y-97401853D01*
X110346688Y-97379571D01*
X110306843Y-97322177D01*
X110300500Y-97283024D01*
X110300500Y-96362228D01*
X110320185Y-96295189D01*
X110336814Y-96274551D01*
X111508446Y-95102919D01*
X111508456Y-95102912D01*
X111517503Y-95093864D01*
X111530204Y-95083518D01*
X111530164Y-95083471D01*
X111535686Y-95078835D01*
X111535696Y-95078830D01*
X111587800Y-95023601D01*
X111588994Y-95022372D01*
X114474548Y-92136817D01*
X114535871Y-92103333D01*
X114562229Y-92100499D01*
X115247871Y-92100499D01*
X115247872Y-92100499D01*
X115307483Y-92094091D01*
X115442331Y-92043796D01*
X115451186Y-92037166D01*
X115516649Y-92012747D01*
X115584923Y-92027596D01*
X115634330Y-92077000D01*
X115649500Y-92136431D01*
X115649500Y-96229191D01*
X115629815Y-96296230D01*
X115613181Y-96316872D01*
X114566871Y-97363181D01*
X114505548Y-97396666D01*
X114479190Y-97399500D01*
X113652129Y-97399500D01*
X113652123Y-97399501D01*
X113592516Y-97405908D01*
X113457671Y-97456202D01*
X113457664Y-97456206D01*
X113342455Y-97542452D01*
X113342452Y-97542455D01*
X113256206Y-97657664D01*
X113256202Y-97657671D01*
X113205908Y-97792517D01*
X113199874Y-97848644D01*
X113199501Y-97852123D01*
X113199500Y-97852135D01*
X113199500Y-98947870D01*
X113199501Y-98947876D01*
X113205908Y-99007483D01*
X113256202Y-99142328D01*
X113256206Y-99142335D01*
X113342452Y-99257544D01*
X113342455Y-99257547D01*
X113457664Y-99343793D01*
X113457671Y-99343797D01*
X113592517Y-99394091D01*
X113592516Y-99394091D01*
X113599444Y-99394835D01*
X113652127Y-99400500D01*
X115247872Y-99400499D01*
X115307483Y-99394091D01*
X115442331Y-99343796D01*
X115557546Y-99257546D01*
X115643796Y-99142331D01*
X115694091Y-99007483D01*
X115700500Y-98947873D01*
X115700499Y-98120806D01*
X115720183Y-98053768D01*
X115736813Y-98033131D01*
X116699513Y-97070431D01*
X116712079Y-97060365D01*
X116711925Y-97060178D01*
X116717933Y-97055205D01*
X116717940Y-97055202D01*
X116766532Y-97003456D01*
X116767856Y-97002088D01*
X116788911Y-96981035D01*
X116793401Y-96975245D01*
X116797183Y-96970815D01*
X116830448Y-96935393D01*
X116840674Y-96916790D01*
X116851353Y-96900533D01*
X116864362Y-96883764D01*
X116883663Y-96839159D01*
X116886207Y-96833965D01*
X116909627Y-96791368D01*
X116914907Y-96770802D01*
X116921209Y-96752395D01*
X116929635Y-96732926D01*
X116937233Y-96684948D01*
X116938411Y-96679253D01*
X116950500Y-96632177D01*
X116950500Y-96610954D01*
X116952027Y-96591555D01*
X116955347Y-96570595D01*
X116950775Y-96522230D01*
X116950500Y-96516392D01*
X116950500Y-89835501D01*
X116952268Y-89819488D01*
X116952026Y-89819466D01*
X116952760Y-89811704D01*
X116950531Y-89740763D01*
X116950500Y-89738815D01*
X116950500Y-89709077D01*
X116950500Y-89709075D01*
X116949579Y-89701788D01*
X116949122Y-89695979D01*
X116947597Y-89647431D01*
X116941676Y-89627053D01*
X116937731Y-89608004D01*
X116935071Y-89586942D01*
X116917186Y-89541771D01*
X116915298Y-89536254D01*
X116901744Y-89489602D01*
X116901744Y-89489601D01*
X116890939Y-89471332D01*
X116882379Y-89453858D01*
X116878806Y-89444834D01*
X116874568Y-89434129D01*
X116846014Y-89394828D01*
X116842810Y-89389950D01*
X116818082Y-89348137D01*
X116818081Y-89348135D01*
X116803074Y-89333128D01*
X116790435Y-89318330D01*
X116777961Y-89301160D01*
X116740528Y-89270194D01*
X116736206Y-89266260D01*
X115736818Y-88266872D01*
X115703333Y-88205549D01*
X115700499Y-88179191D01*
X115700499Y-87352129D01*
X115700498Y-87352123D01*
X115700497Y-87352116D01*
X115694091Y-87292517D01*
X115693291Y-87290373D01*
X115643797Y-87157671D01*
X115643793Y-87157664D01*
X115557547Y-87042455D01*
X115557544Y-87042452D01*
X115442335Y-86956206D01*
X115442328Y-86956202D01*
X115307482Y-86905908D01*
X115307483Y-86905908D01*
X115247883Y-86899501D01*
X115247881Y-86899500D01*
X115247873Y-86899500D01*
X115247864Y-86899500D01*
X113652129Y-86899500D01*
X113652123Y-86899501D01*
X113592516Y-86905908D01*
X113457671Y-86956202D01*
X113457664Y-86956206D01*
X113342455Y-87042452D01*
X113342452Y-87042455D01*
X113256206Y-87157664D01*
X113256202Y-87157671D01*
X113205908Y-87292517D01*
X113199874Y-87348644D01*
X113199501Y-87352123D01*
X113199500Y-87352135D01*
X113199500Y-88447870D01*
X113199501Y-88447876D01*
X113205908Y-88507483D01*
X113256202Y-88642328D01*
X113256206Y-88642335D01*
X113342452Y-88757544D01*
X113342455Y-88757547D01*
X113457664Y-88843793D01*
X113457671Y-88843797D01*
X113592517Y-88894091D01*
X113592516Y-88894091D01*
X113599444Y-88894835D01*
X113652127Y-88900500D01*
X114479191Y-88900499D01*
X114546230Y-88920183D01*
X114566872Y-88936818D01*
X115590111Y-89960057D01*
X115623596Y-90021380D01*
X115618612Y-90091072D01*
X115576740Y-90147005D01*
X115511276Y-90171422D01*
X115451010Y-90158313D01*
X115450641Y-90159303D01*
X115443756Y-90156735D01*
X115443006Y-90156572D01*
X115442331Y-90156203D01*
X115307482Y-90105908D01*
X115307483Y-90105908D01*
X115247883Y-90099501D01*
X115247881Y-90099500D01*
X115247873Y-90099500D01*
X115247864Y-90099500D01*
X113652129Y-90099500D01*
X113652123Y-90099501D01*
X113592516Y-90105908D01*
X113457671Y-90156202D01*
X113457664Y-90156206D01*
X113342455Y-90242452D01*
X113342452Y-90242455D01*
X113256206Y-90357664D01*
X113256202Y-90357671D01*
X113205908Y-90492517D01*
X113199501Y-90552116D01*
X113199501Y-90552123D01*
X113199500Y-90552135D01*
X113199500Y-91237769D01*
X113179815Y-91304808D01*
X113163181Y-91325450D01*
X110775451Y-93713181D01*
X110714128Y-93746666D01*
X110687770Y-93749500D01*
X101211230Y-93749500D01*
X101144191Y-93729815D01*
X101098436Y-93677011D01*
X101088492Y-93607853D01*
X101117517Y-93544297D01*
X101123549Y-93537819D01*
X102524548Y-92136818D01*
X102585871Y-92103333D01*
X102612229Y-92100499D01*
X103297871Y-92100499D01*
X103297872Y-92100499D01*
X103357483Y-92094091D01*
X103492331Y-92043796D01*
X103607546Y-91957546D01*
X103693796Y-91842331D01*
X103744091Y-91707483D01*
X103750500Y-91647873D01*
X103750499Y-90552128D01*
X103744091Y-90492517D01*
X103706655Y-90392147D01*
X103693797Y-90357671D01*
X103693793Y-90357664D01*
X103607547Y-90242455D01*
X103607544Y-90242452D01*
X103492335Y-90156206D01*
X103492328Y-90156202D01*
X103357482Y-90105908D01*
X103357483Y-90105908D01*
X103297883Y-90099501D01*
X103297881Y-90099500D01*
X103297873Y-90099500D01*
X103297864Y-90099500D01*
X101702129Y-90099500D01*
X101702123Y-90099501D01*
X101642516Y-90105908D01*
X101507671Y-90156202D01*
X101507664Y-90156206D01*
X101392455Y-90242452D01*
X101392452Y-90242455D01*
X101306206Y-90357664D01*
X101306202Y-90357671D01*
X101255908Y-90492517D01*
X101249501Y-90552116D01*
X101249501Y-90552123D01*
X101249500Y-90552135D01*
X101249500Y-91237769D01*
X101229815Y-91304808D01*
X101213181Y-91325450D01*
X98825451Y-93713181D01*
X98764128Y-93746666D01*
X98737770Y-93749500D01*
X94262230Y-93749500D01*
X94195191Y-93729815D01*
X94174549Y-93713181D01*
X91736818Y-91275450D01*
X91703333Y-91214127D01*
X91700499Y-91187769D01*
X91700499Y-90552129D01*
X91700498Y-90552123D01*
X91700497Y-90552116D01*
X91694091Y-90492517D01*
X91656655Y-90392147D01*
X91643797Y-90357671D01*
X91643793Y-90357664D01*
X91557547Y-90242455D01*
X91557544Y-90242452D01*
X91442335Y-90156206D01*
X91442328Y-90156202D01*
X91307482Y-90105908D01*
X91307483Y-90105908D01*
X91247883Y-90099501D01*
X91247881Y-90099500D01*
X91247873Y-90099500D01*
X91247865Y-90099500D01*
X90562229Y-90099500D01*
X90495190Y-90079815D01*
X90474548Y-90063181D01*
X89519422Y-89108054D01*
X89485937Y-89046731D01*
X89490921Y-88977039D01*
X89532793Y-88921106D01*
X89598257Y-88896689D01*
X89620353Y-88897083D01*
X89652127Y-88900500D01*
X91247872Y-88900499D01*
X91307483Y-88894091D01*
X91442331Y-88843796D01*
X91557546Y-88757546D01*
X91643796Y-88642331D01*
X91647960Y-88631165D01*
X91689829Y-88575234D01*
X91755293Y-88550816D01*
X91764141Y-88550500D01*
X92079192Y-88550500D01*
X92146231Y-88570185D01*
X92166873Y-88586819D01*
X95079564Y-91499510D01*
X95089635Y-91512080D01*
X95089822Y-91511926D01*
X95094795Y-91517937D01*
X95146542Y-91566531D01*
X95147909Y-91567855D01*
X95168965Y-91588911D01*
X95168968Y-91588913D01*
X95174757Y-91593405D01*
X95179197Y-91597197D01*
X95208498Y-91624711D01*
X95214607Y-91630448D01*
X95214609Y-91630449D01*
X95233205Y-91640672D01*
X95249470Y-91651357D01*
X95266232Y-91664360D01*
X95266235Y-91664361D01*
X95266236Y-91664362D01*
X95310823Y-91683656D01*
X95316059Y-91686221D01*
X95358632Y-91709627D01*
X95374340Y-91713659D01*
X95379186Y-91714904D01*
X95397598Y-91721207D01*
X95417073Y-91729635D01*
X95465071Y-91737237D01*
X95470740Y-91738411D01*
X95517823Y-91750500D01*
X95539051Y-91750500D01*
X95558448Y-91752026D01*
X95579403Y-91755345D01*
X95579404Y-91755346D01*
X95579404Y-91755345D01*
X95579405Y-91755346D01*
X95627760Y-91750775D01*
X95633599Y-91750500D01*
X96285859Y-91750500D01*
X96352898Y-91770185D01*
X96398653Y-91822989D01*
X96402030Y-91831140D01*
X96406204Y-91842331D01*
X96406205Y-91842332D01*
X96406206Y-91842335D01*
X96492452Y-91957544D01*
X96492455Y-91957547D01*
X96607664Y-92043793D01*
X96607671Y-92043797D01*
X96742517Y-92094091D01*
X96742516Y-92094091D01*
X96749444Y-92094835D01*
X96802127Y-92100500D01*
X98397872Y-92100499D01*
X98457483Y-92094091D01*
X98592331Y-92043796D01*
X98707546Y-91957546D01*
X98793796Y-91842331D01*
X98844091Y-91707483D01*
X98850500Y-91647873D01*
X98850499Y-90552128D01*
X98844091Y-90492517D01*
X98806655Y-90392147D01*
X98793797Y-90357671D01*
X98793793Y-90357664D01*
X98707547Y-90242455D01*
X98707544Y-90242452D01*
X98592335Y-90156206D01*
X98592328Y-90156202D01*
X98457482Y-90105908D01*
X98457483Y-90105908D01*
X98397883Y-90099501D01*
X98397881Y-90099500D01*
X98397873Y-90099500D01*
X98397864Y-90099500D01*
X96802129Y-90099500D01*
X96802123Y-90099501D01*
X96742516Y-90105908D01*
X96607671Y-90156202D01*
X96607664Y-90156206D01*
X96492455Y-90242452D01*
X96492452Y-90242455D01*
X96406206Y-90357664D01*
X96406204Y-90357668D01*
X96406204Y-90357669D01*
X96402039Y-90368834D01*
X96360171Y-90424766D01*
X96294707Y-90449184D01*
X96285859Y-90449500D01*
X95920808Y-90449500D01*
X95853769Y-90429815D01*
X95833127Y-90413181D01*
X93569946Y-88150000D01*
X96350000Y-88150000D01*
X96350000Y-88447844D01*
X96356401Y-88507372D01*
X96356403Y-88507379D01*
X96406645Y-88642086D01*
X96406649Y-88642093D01*
X96492809Y-88757187D01*
X96492812Y-88757190D01*
X96607906Y-88843350D01*
X96607913Y-88843354D01*
X96742620Y-88893596D01*
X96742627Y-88893598D01*
X96802155Y-88899999D01*
X96802172Y-88900000D01*
X97350000Y-88900000D01*
X97350000Y-88150000D01*
X97850000Y-88150000D01*
X97850000Y-88900000D01*
X98397828Y-88900000D01*
X98397844Y-88899999D01*
X98457372Y-88893598D01*
X98457379Y-88893596D01*
X98592086Y-88843354D01*
X98592093Y-88843350D01*
X98707187Y-88757190D01*
X98707190Y-88757187D01*
X98793350Y-88642093D01*
X98793354Y-88642086D01*
X98843596Y-88507379D01*
X98843598Y-88507372D01*
X98849996Y-88447870D01*
X101249500Y-88447870D01*
X101249501Y-88447876D01*
X101255908Y-88507483D01*
X101306202Y-88642328D01*
X101306206Y-88642335D01*
X101392452Y-88757544D01*
X101392455Y-88757547D01*
X101507664Y-88843793D01*
X101507671Y-88843797D01*
X101642517Y-88894091D01*
X101642516Y-88894091D01*
X101649444Y-88894835D01*
X101702127Y-88900500D01*
X103297872Y-88900499D01*
X103357483Y-88894091D01*
X103492331Y-88843796D01*
X103607546Y-88757546D01*
X103693796Y-88642331D01*
X103697960Y-88631165D01*
X103739829Y-88575234D01*
X103805293Y-88550816D01*
X103814141Y-88550500D01*
X103979192Y-88550500D01*
X104046231Y-88570185D01*
X104066873Y-88586819D01*
X106979564Y-91499510D01*
X106989635Y-91512080D01*
X106989822Y-91511926D01*
X106994795Y-91517937D01*
X107046542Y-91566531D01*
X107047909Y-91567855D01*
X107068965Y-91588911D01*
X107068968Y-91588913D01*
X107074757Y-91593405D01*
X107079197Y-91597197D01*
X107108498Y-91624711D01*
X107114607Y-91630448D01*
X107114609Y-91630449D01*
X107133205Y-91640672D01*
X107149470Y-91651357D01*
X107166232Y-91664360D01*
X107166235Y-91664361D01*
X107166236Y-91664362D01*
X107210823Y-91683656D01*
X107216059Y-91686221D01*
X107258632Y-91709627D01*
X107274340Y-91713659D01*
X107279186Y-91714904D01*
X107297598Y-91721207D01*
X107317073Y-91729635D01*
X107365071Y-91737237D01*
X107370740Y-91738411D01*
X107417823Y-91750500D01*
X107439051Y-91750500D01*
X107458448Y-91752026D01*
X107479403Y-91755345D01*
X107479404Y-91755346D01*
X107479404Y-91755345D01*
X107479405Y-91755346D01*
X107527760Y-91750775D01*
X107533599Y-91750500D01*
X108235859Y-91750500D01*
X108302898Y-91770185D01*
X108348653Y-91822989D01*
X108352030Y-91831140D01*
X108356204Y-91842331D01*
X108356205Y-91842332D01*
X108356206Y-91842335D01*
X108442452Y-91957544D01*
X108442455Y-91957547D01*
X108557664Y-92043793D01*
X108557671Y-92043797D01*
X108692517Y-92094091D01*
X108692516Y-92094091D01*
X108699444Y-92094835D01*
X108752127Y-92100500D01*
X110347872Y-92100499D01*
X110407483Y-92094091D01*
X110542331Y-92043796D01*
X110657546Y-91957546D01*
X110743796Y-91842331D01*
X110794091Y-91707483D01*
X110800500Y-91647873D01*
X110800499Y-90552128D01*
X110794091Y-90492517D01*
X110756655Y-90392147D01*
X110743797Y-90357671D01*
X110743793Y-90357664D01*
X110657547Y-90242455D01*
X110657544Y-90242452D01*
X110542335Y-90156206D01*
X110542328Y-90156202D01*
X110407482Y-90105908D01*
X110407483Y-90105908D01*
X110347883Y-90099501D01*
X110347881Y-90099500D01*
X110347873Y-90099500D01*
X110347864Y-90099500D01*
X108752129Y-90099500D01*
X108752123Y-90099501D01*
X108692516Y-90105908D01*
X108557671Y-90156202D01*
X108557664Y-90156206D01*
X108442455Y-90242452D01*
X108442452Y-90242455D01*
X108356206Y-90357664D01*
X108356204Y-90357668D01*
X108356204Y-90357669D01*
X108352039Y-90368834D01*
X108310171Y-90424766D01*
X108244707Y-90449184D01*
X108235859Y-90449500D01*
X107820808Y-90449500D01*
X107753769Y-90429815D01*
X107733127Y-90413181D01*
X105469946Y-88150000D01*
X108300000Y-88150000D01*
X108300000Y-88447844D01*
X108306401Y-88507372D01*
X108306403Y-88507379D01*
X108356645Y-88642086D01*
X108356649Y-88642093D01*
X108442809Y-88757187D01*
X108442812Y-88757190D01*
X108557906Y-88843350D01*
X108557913Y-88843354D01*
X108692620Y-88893596D01*
X108692627Y-88893598D01*
X108752155Y-88899999D01*
X108752172Y-88900000D01*
X109300000Y-88900000D01*
X109300000Y-88150000D01*
X109800000Y-88150000D01*
X109800000Y-88900000D01*
X110347828Y-88900000D01*
X110347844Y-88899999D01*
X110407372Y-88893598D01*
X110407379Y-88893596D01*
X110542086Y-88843354D01*
X110542093Y-88843350D01*
X110657187Y-88757190D01*
X110657190Y-88757187D01*
X110743350Y-88642093D01*
X110743354Y-88642086D01*
X110793596Y-88507379D01*
X110793598Y-88507372D01*
X110799999Y-88447844D01*
X110800000Y-88447827D01*
X110800000Y-88150000D01*
X109800000Y-88150000D01*
X109300000Y-88150000D01*
X108300000Y-88150000D01*
X105469946Y-88150000D01*
X104969946Y-87650000D01*
X108300000Y-87650000D01*
X109300000Y-87650000D01*
X109300000Y-86900000D01*
X109800000Y-86900000D01*
X109800000Y-87650000D01*
X110799999Y-87650000D01*
X110800000Y-87352172D01*
X110799999Y-87352155D01*
X110793598Y-87292627D01*
X110793596Y-87292620D01*
X110743354Y-87157913D01*
X110743350Y-87157906D01*
X110657190Y-87042812D01*
X110657187Y-87042809D01*
X110542093Y-86956649D01*
X110542086Y-86956645D01*
X110407379Y-86906403D01*
X110407372Y-86906401D01*
X110347844Y-86900000D01*
X109800000Y-86900000D01*
X109300000Y-86900000D01*
X108752155Y-86900000D01*
X108692627Y-86906401D01*
X108692620Y-86906403D01*
X108557913Y-86956645D01*
X108557906Y-86956649D01*
X108442812Y-87042809D01*
X108442809Y-87042812D01*
X108356649Y-87157906D01*
X108356645Y-87157913D01*
X108306403Y-87292620D01*
X108306401Y-87292627D01*
X108300000Y-87352155D01*
X108300000Y-87650000D01*
X104969946Y-87650000D01*
X104820434Y-87500488D01*
X104810361Y-87487914D01*
X104810174Y-87488070D01*
X104805198Y-87482055D01*
X104772382Y-87451240D01*
X104753432Y-87433445D01*
X104752058Y-87432112D01*
X104731035Y-87411089D01*
X104725240Y-87406594D01*
X104720798Y-87402799D01*
X104685396Y-87369554D01*
X104685388Y-87369548D01*
X104666792Y-87359325D01*
X104650531Y-87348644D01*
X104633763Y-87335637D01*
X104610295Y-87325482D01*
X104589178Y-87316343D01*
X104583956Y-87313786D01*
X104541368Y-87290373D01*
X104541365Y-87290372D01*
X104520801Y-87285092D01*
X104502396Y-87278790D01*
X104482927Y-87270365D01*
X104482921Y-87270363D01*
X104434951Y-87262766D01*
X104429236Y-87261582D01*
X104412772Y-87257355D01*
X104382180Y-87249500D01*
X104382177Y-87249500D01*
X104360955Y-87249500D01*
X104341555Y-87247973D01*
X104320596Y-87244653D01*
X104320595Y-87244653D01*
X104296786Y-87246903D01*
X104272230Y-87249225D01*
X104266392Y-87249500D01*
X103814141Y-87249500D01*
X103747102Y-87229815D01*
X103701347Y-87177011D01*
X103697969Y-87168859D01*
X103693796Y-87157669D01*
X103693793Y-87157665D01*
X103693793Y-87157664D01*
X103607547Y-87042455D01*
X103607544Y-87042452D01*
X103492335Y-86956206D01*
X103492328Y-86956202D01*
X103357482Y-86905908D01*
X103357483Y-86905908D01*
X103297883Y-86899501D01*
X103297881Y-86899500D01*
X103297873Y-86899500D01*
X103297864Y-86899500D01*
X101702129Y-86899500D01*
X101702123Y-86899501D01*
X101642516Y-86905908D01*
X101507671Y-86956202D01*
X101507664Y-86956206D01*
X101392455Y-87042452D01*
X101392452Y-87042455D01*
X101306206Y-87157664D01*
X101306202Y-87157671D01*
X101255908Y-87292517D01*
X101249874Y-87348644D01*
X101249501Y-87352123D01*
X101249500Y-87352135D01*
X101249500Y-88447870D01*
X98849996Y-88447870D01*
X98849999Y-88447844D01*
X98850000Y-88447827D01*
X98850000Y-88150000D01*
X97850000Y-88150000D01*
X97350000Y-88150000D01*
X96350000Y-88150000D01*
X93569946Y-88150000D01*
X93069946Y-87650000D01*
X96350000Y-87650000D01*
X97350000Y-87650000D01*
X97350000Y-86900000D01*
X97850000Y-86900000D01*
X97850000Y-87650000D01*
X98850000Y-87650000D01*
X98850000Y-87352172D01*
X98849999Y-87352155D01*
X98843598Y-87292627D01*
X98843596Y-87292620D01*
X98793354Y-87157913D01*
X98793350Y-87157906D01*
X98707190Y-87042812D01*
X98707187Y-87042809D01*
X98592093Y-86956649D01*
X98592086Y-86956645D01*
X98457379Y-86906403D01*
X98457372Y-86906401D01*
X98397844Y-86900000D01*
X97850000Y-86900000D01*
X97350000Y-86900000D01*
X96802155Y-86900000D01*
X96742627Y-86906401D01*
X96742620Y-86906403D01*
X96607913Y-86956645D01*
X96607906Y-86956649D01*
X96492812Y-87042809D01*
X96492809Y-87042812D01*
X96406649Y-87157906D01*
X96406645Y-87157913D01*
X96356403Y-87292620D01*
X96356401Y-87292627D01*
X96350000Y-87352155D01*
X96350000Y-87650000D01*
X93069946Y-87650000D01*
X92920434Y-87500488D01*
X92910361Y-87487914D01*
X92910174Y-87488070D01*
X92905198Y-87482055D01*
X92872382Y-87451240D01*
X92853432Y-87433445D01*
X92852058Y-87432112D01*
X92831035Y-87411089D01*
X92825240Y-87406594D01*
X92820798Y-87402799D01*
X92785396Y-87369554D01*
X92785388Y-87369548D01*
X92766792Y-87359325D01*
X92750531Y-87348644D01*
X92733763Y-87335637D01*
X92710295Y-87325482D01*
X92689178Y-87316343D01*
X92683956Y-87313786D01*
X92641368Y-87290373D01*
X92641365Y-87290372D01*
X92620801Y-87285092D01*
X92602396Y-87278790D01*
X92582927Y-87270365D01*
X92582921Y-87270363D01*
X92534951Y-87262766D01*
X92529236Y-87261582D01*
X92512772Y-87257355D01*
X92482180Y-87249500D01*
X92482177Y-87249500D01*
X92460955Y-87249500D01*
X92441555Y-87247973D01*
X92420596Y-87244653D01*
X92420595Y-87244653D01*
X92396786Y-87246903D01*
X92372230Y-87249225D01*
X92366392Y-87249500D01*
X91764141Y-87249500D01*
X91697102Y-87229815D01*
X91651347Y-87177011D01*
X91647969Y-87168859D01*
X91643796Y-87157669D01*
X91643793Y-87157665D01*
X91643793Y-87157664D01*
X91557547Y-87042455D01*
X91557544Y-87042452D01*
X91442335Y-86956206D01*
X91442328Y-86956202D01*
X91307482Y-86905908D01*
X91307483Y-86905908D01*
X91247883Y-86899501D01*
X91247881Y-86899500D01*
X91247873Y-86899500D01*
X91247864Y-86899500D01*
X89652129Y-86899500D01*
X89652123Y-86899501D01*
X89592516Y-86905908D01*
X89457671Y-86956202D01*
X89457664Y-86956206D01*
X89342455Y-87042452D01*
X89342452Y-87042455D01*
X89256206Y-87157664D01*
X89256202Y-87157671D01*
X89205908Y-87292517D01*
X89199874Y-87348644D01*
X89199501Y-87352123D01*
X89199500Y-87352135D01*
X89199500Y-88447870D01*
X89199501Y-88447876D01*
X89205909Y-88507484D01*
X89249306Y-88623841D01*
X89254290Y-88693533D01*
X89220804Y-88754855D01*
X89159481Y-88788340D01*
X89094122Y-88784879D01*
X89087679Y-88782744D01*
X89013328Y-88767391D01*
X89011569Y-88767001D01*
X88937718Y-88749499D01*
X88930547Y-88748661D01*
X88930553Y-88748601D01*
X88923055Y-88747835D01*
X88923050Y-88747895D01*
X88915860Y-88747265D01*
X88839968Y-88749474D01*
X88838165Y-88749500D01*
X86881885Y-88749500D01*
X86814846Y-88729815D01*
X86769091Y-88677011D01*
X86759147Y-88607853D01*
X86765703Y-88582167D01*
X86793596Y-88507379D01*
X86793598Y-88507372D01*
X86799999Y-88447844D01*
X86800000Y-88447827D01*
X86800000Y-88150000D01*
X84300000Y-88150000D01*
X84300000Y-88447844D01*
X84306401Y-88507372D01*
X84306403Y-88507379D01*
X84334297Y-88582167D01*
X84339281Y-88651859D01*
X84305796Y-88713182D01*
X84244473Y-88746666D01*
X84218115Y-88749500D01*
X83263708Y-88749500D01*
X83245737Y-88748191D01*
X83221979Y-88744711D01*
X83221973Y-88744710D01*
X83177512Y-88748601D01*
X83169931Y-88749264D01*
X83164530Y-88749500D01*
X83156283Y-88749500D01*
X83124606Y-88753202D01*
X83122832Y-88753384D01*
X83092390Y-88756047D01*
X83047198Y-88760001D01*
X83040132Y-88761460D01*
X83040120Y-88761404D01*
X83032763Y-88763035D01*
X83032777Y-88763092D01*
X83025740Y-88764760D01*
X82954385Y-88790729D01*
X82952685Y-88791320D01*
X82880668Y-88815185D01*
X82874126Y-88818236D01*
X82874101Y-88818183D01*
X82867308Y-88821471D01*
X82867334Y-88821523D01*
X82860880Y-88824764D01*
X82797468Y-88866470D01*
X82795948Y-88867439D01*
X82731348Y-88907285D01*
X82725683Y-88911765D01*
X82725647Y-88911719D01*
X82719798Y-88916484D01*
X82719835Y-88916528D01*
X82714309Y-88921164D01*
X82662213Y-88976381D01*
X82660958Y-88977674D01*
X78914358Y-92724272D01*
X78900729Y-92736051D01*
X78881468Y-92750390D01*
X78847898Y-92790397D01*
X78844253Y-92794376D01*
X78838407Y-92800223D01*
X78818618Y-92825251D01*
X78817481Y-92826647D01*
X78768694Y-92884790D01*
X78764729Y-92890819D01*
X78764682Y-92890788D01*
X78760630Y-92897147D01*
X78760679Y-92897177D01*
X78756889Y-92903321D01*
X78724812Y-92972110D01*
X78724027Y-92973731D01*
X78689957Y-93041572D01*
X78687488Y-93048357D01*
X78687432Y-93048336D01*
X78684960Y-93055450D01*
X78685015Y-93055469D01*
X78682743Y-93062325D01*
X78667391Y-93136670D01*
X78667001Y-93138428D01*
X78649499Y-93212279D01*
X78648661Y-93219454D01*
X78648601Y-93219447D01*
X78647835Y-93226945D01*
X78647895Y-93226951D01*
X78647265Y-93234140D01*
X78649474Y-93310030D01*
X78649500Y-93311833D01*
X78649500Y-95671994D01*
X78629815Y-95739033D01*
X78590290Y-95777721D01*
X78485826Y-95841737D01*
X78485823Y-95841738D01*
X78300241Y-96000241D01*
X78141738Y-96185823D01*
X78141737Y-96185826D01*
X78014222Y-96393910D01*
X77920830Y-96619380D01*
X77863853Y-96856702D01*
X77844706Y-97100000D01*
X77863853Y-97343297D01*
X77863853Y-97343300D01*
X77863854Y-97343302D01*
X77911666Y-97542452D01*
X77920830Y-97580619D01*
X78014222Y-97806089D01*
X78141737Y-98014173D01*
X78141738Y-98014176D01*
X78157923Y-98033126D01*
X78300241Y-98199759D01*
X78350599Y-98242769D01*
X78365751Y-98255710D01*
X78403944Y-98314217D01*
X78404442Y-98384085D01*
X78367088Y-98443131D01*
X78365751Y-98444290D01*
X78300241Y-98500241D01*
X78141738Y-98685823D01*
X78141737Y-98685826D01*
X78014222Y-98893910D01*
X77920830Y-99119380D01*
X77920828Y-99119387D01*
X77920828Y-99119388D01*
X77918000Y-99131169D01*
X77863853Y-99356702D01*
X77844706Y-99600000D01*
X75138795Y-99600000D01*
X75146070Y-99234152D01*
X75146100Y-99233129D01*
X75164100Y-98783593D01*
X75196338Y-98243779D01*
X75196408Y-98242769D01*
X75232382Y-97794284D01*
X75286051Y-97256229D01*
X75286168Y-97255163D01*
X75340046Y-96808564D01*
X75415080Y-96272953D01*
X75415242Y-96271881D01*
X75486923Y-95827929D01*
X75583207Y-95295640D01*
X75583410Y-95294582D01*
X75672787Y-94853898D01*
X75790169Y-94325802D01*
X75790419Y-94324732D01*
X75897331Y-93888079D01*
X76035655Y-93364918D01*
X76035907Y-93364006D01*
X76160203Y-92931981D01*
X76319195Y-92414800D01*
X76319565Y-92413641D01*
X76460993Y-91987099D01*
X76640460Y-91476540D01*
X76640864Y-91475430D01*
X76799192Y-91055024D01*
X76998868Y-90551871D01*
X76999324Y-90550759D01*
X77174290Y-90137156D01*
X77393896Y-89642148D01*
X77394320Y-89641221D01*
X77585672Y-89234996D01*
X77824833Y-88749013D01*
X77825362Y-88747967D01*
X78032705Y-88349936D01*
X78291048Y-87873750D01*
X78291657Y-87872658D01*
X78419220Y-87650000D01*
X84300000Y-87650000D01*
X85300000Y-87650000D01*
X85300000Y-86900000D01*
X85800000Y-86900000D01*
X85800000Y-87650000D01*
X86800000Y-87650000D01*
X86800000Y-87352172D01*
X86799999Y-87352155D01*
X86793598Y-87292627D01*
X86793596Y-87292620D01*
X86743354Y-87157913D01*
X86743350Y-87157906D01*
X86657190Y-87042812D01*
X86657187Y-87042809D01*
X86542093Y-86956649D01*
X86542086Y-86956645D01*
X86407379Y-86906403D01*
X86407372Y-86906401D01*
X86347844Y-86900000D01*
X85800000Y-86900000D01*
X85300000Y-86900000D01*
X84752155Y-86900000D01*
X84692627Y-86906401D01*
X84692620Y-86906403D01*
X84557913Y-86956645D01*
X84557906Y-86956649D01*
X84442812Y-87042809D01*
X84442809Y-87042812D01*
X84356649Y-87157906D01*
X84356645Y-87157913D01*
X84306403Y-87292620D01*
X84306401Y-87292627D01*
X84300000Y-87352155D01*
X84300000Y-87650000D01*
X78419220Y-87650000D01*
X78514634Y-87483457D01*
X78791829Y-87017711D01*
X78792417Y-87016747D01*
X79030750Y-86636839D01*
X79326351Y-86182314D01*
X79326979Y-86181374D01*
X79580163Y-85811536D01*
X79893713Y-85368963D01*
X79894466Y-85367927D01*
X80162004Y-85008838D01*
X80493090Y-84578834D01*
X80493899Y-84577809D01*
X80775410Y-84229934D01*
X81123497Y-83813234D01*
X81124371Y-83812213D01*
X81419411Y-83476067D01*
X81783932Y-83073377D01*
X81784855Y-83072383D01*
X82092909Y-82748519D01*
X82473402Y-82360384D01*
X82474212Y-82359579D01*
X82794874Y-82048399D01*
X83190647Y-81675557D01*
X83191646Y-81674639D01*
X83524153Y-81376850D01*
X83934711Y-81019798D01*
X83935748Y-81018920D01*
X84279579Y-80734940D01*
X84704299Y-80394260D01*
X84705408Y-80393393D01*
X85060036Y-80123619D01*
X85498273Y-79799865D01*
X85499367Y-79799079D01*
X85864156Y-79543951D01*
X86315216Y-79237673D01*
X86316447Y-79236859D01*
X86685742Y-79000001D01*
X98694532Y-79000001D01*
X98714364Y-79226686D01*
X98714366Y-79226697D01*
X98773258Y-79446488D01*
X98773261Y-79446497D01*
X98869431Y-79652732D01*
X98869432Y-79652734D01*
X98999954Y-79839141D01*
X99160858Y-80000045D01*
X99160861Y-80000047D01*
X99347266Y-80130568D01*
X99553504Y-80226739D01*
X99773308Y-80285635D01*
X99943214Y-80300499D01*
X99943215Y-80300500D01*
X100056784Y-80300500D01*
X100056785Y-80300500D01*
X100056785Y-80300499D01*
X100226692Y-80285635D01*
X100446496Y-80226739D01*
X100652734Y-80130568D01*
X100839139Y-80000047D01*
X101000047Y-79839139D01*
X101130568Y-79652734D01*
X101226739Y-79446496D01*
X101285635Y-79226692D01*
X101305468Y-79000000D01*
X101285635Y-78773308D01*
X101226739Y-78553504D01*
X101130568Y-78347266D01*
X101000047Y-78160861D01*
X101000045Y-78160858D01*
X100839141Y-77999954D01*
X100652734Y-77869432D01*
X100652732Y-77869431D01*
X100446497Y-77773261D01*
X100446488Y-77773258D01*
X100226697Y-77714366D01*
X100226687Y-77714364D01*
X100056785Y-77699500D01*
X100056784Y-77699500D01*
X99943216Y-77699500D01*
X99943215Y-77699500D01*
X99773312Y-77714364D01*
X99773302Y-77714366D01*
X99553511Y-77773258D01*
X99553502Y-77773261D01*
X99347267Y-77869431D01*
X99347265Y-77869432D01*
X99160858Y-77999954D01*
X98999954Y-78160858D01*
X98869432Y-78347265D01*
X98869431Y-78347267D01*
X98773261Y-78553502D01*
X98773258Y-78553511D01*
X98714366Y-78773302D01*
X98714364Y-78773313D01*
X98694532Y-78999998D01*
X98694532Y-79000001D01*
X86685742Y-79000001D01*
X86690750Y-78996789D01*
X87154076Y-78708409D01*
X87155282Y-78707680D01*
X87538520Y-78482995D01*
X88013299Y-78213061D01*
X88014493Y-78212403D01*
X88406081Y-78003409D01*
X88891573Y-77752379D01*
X88892890Y-77751721D01*
X89292016Y-77558808D01*
X89787581Y-77327056D01*
X89788860Y-77326479D01*
X90194930Y-77149887D01*
X90699797Y-76937818D01*
X90701173Y-76937262D01*
X91113351Y-76777304D01*
X91626785Y-76585274D01*
X91628312Y-76584727D01*
X91931105Y-76480956D01*
X92045958Y-76441596D01*
X92098653Y-76424241D01*
X92567210Y-76269936D01*
X92568608Y-76269496D01*
X92991032Y-76143371D01*
X93519378Y-75992375D01*
X93520844Y-75991978D01*
X93947347Y-75883016D01*
X94481905Y-75752993D01*
X94483384Y-75752655D01*
X94913178Y-75660999D01*
X95453131Y-75552201D01*
X95454758Y-75551897D01*
X95887058Y-75477651D01*
X96431650Y-75390286D01*
X96433307Y-75390045D01*
X96867413Y-75333261D01*
X97415821Y-75267523D01*
X97417577Y-75267339D01*
X97852794Y-75228043D01*
X98404196Y-75184095D01*
X98405825Y-75183990D01*
X98841456Y-75162178D01*
X99395082Y-75140151D01*
X99396708Y-75140110D01*
X99782169Y-75136253D01*
X99831959Y-75135756D01*
X100386816Y-75135756D01*
X100388672Y-75135783D01*
G37*
%TD.AperFunction*%
%TD*%
M02*
