%TF.GenerationSoftware,KiCad,Pcbnew,7.0.5*%
%TF.CreationDate,2023-10-17T21:25:03+03:00*%
%TF.ProjectId,Light,4c696768-742e-46b6-9963-61645f706362,rev?*%
%TF.SameCoordinates,Original*%
%TF.FileFunction,Legend,Bot*%
%TF.FilePolarity,Positive*%
%FSLAX46Y46*%
G04 Gerber Fmt 4.6, Leading zero omitted, Abs format (unit mm)*
G04 Created by KiCad (PCBNEW 7.0.5) date 2023-10-17 21:25:03*
%MOMM*%
%LPD*%
G01*
G04 APERTURE LIST*
%ADD10C,0.150000*%
G04 APERTURE END LIST*
D10*
G36*
X79640601Y-93394819D02*
G01*
X79489676Y-93394819D01*
X79375161Y-93356647D01*
X79301049Y-93282533D01*
X79262556Y-93205547D01*
X79219173Y-93032013D01*
X79219173Y-92907624D01*
X79262556Y-92734091D01*
X79301051Y-92657101D01*
X79375162Y-92582990D01*
X79489677Y-92544819D01*
X79640601Y-92544819D01*
X79640601Y-93394819D01*
G37*
G36*
X81688220Y-91784819D02*
G01*
X81537295Y-91784819D01*
X81422780Y-91746647D01*
X81348668Y-91672533D01*
X81310175Y-91595547D01*
X81266792Y-91422013D01*
X81266792Y-91297624D01*
X81310175Y-91124091D01*
X81348670Y-91047102D01*
X81422781Y-90972990D01*
X81537296Y-90934819D01*
X81688220Y-90934819D01*
X81688220Y-91784819D01*
G37*
G36*
X82467857Y-93967857D02*
G01*
X78509524Y-93967857D01*
X78509524Y-93038073D01*
X79066071Y-93038073D01*
X79069173Y-93050481D01*
X79069173Y-93052029D01*
X79071777Y-93060898D01*
X79115791Y-93236953D01*
X79114861Y-93245567D01*
X79121027Y-93257900D01*
X79121646Y-93260373D01*
X79125828Y-93267500D01*
X79168123Y-93352090D01*
X79170806Y-93364422D01*
X79185435Y-93379051D01*
X79199495Y-93394167D01*
X79200913Y-93394529D01*
X79278761Y-93472378D01*
X79290040Y-93486387D01*
X79304581Y-93491234D01*
X79318034Y-93498580D01*
X79325102Y-93498074D01*
X79444869Y-93537997D01*
X79455484Y-93544819D01*
X79476163Y-93544819D01*
X79496803Y-93545565D01*
X79498062Y-93544819D01*
X79710241Y-93544819D01*
X79726725Y-93547189D01*
X79741877Y-93540269D01*
X79757861Y-93535576D01*
X79761597Y-93531263D01*
X79766789Y-93528893D01*
X79775796Y-93514876D01*
X79786703Y-93502290D01*
X79787514Y-93496643D01*
X79790601Y-93491841D01*
X79790601Y-93475178D01*
X79790787Y-93473886D01*
X80113732Y-93473886D01*
X80120380Y-93492820D01*
X80126035Y-93512079D01*
X80127625Y-93513457D01*
X80128323Y-93515443D01*
X80144153Y-93527778D01*
X80159321Y-93540921D01*
X80161404Y-93541220D01*
X80163064Y-93542514D01*
X80183054Y-93544333D01*
X80202916Y-93547189D01*
X80204829Y-93546315D01*
X80206927Y-93546506D01*
X80224731Y-93537226D01*
X80242980Y-93528893D01*
X80244117Y-93527122D01*
X80245984Y-93526150D01*
X80255940Y-93508726D01*
X80266792Y-93491841D01*
X80266792Y-93489736D01*
X80688220Y-92752237D01*
X80688220Y-93480601D01*
X80697463Y-93512079D01*
X80730749Y-93540921D01*
X80774344Y-93547189D01*
X80814408Y-93528893D01*
X80838220Y-93491841D01*
X80838220Y-93369003D01*
X81113825Y-93369003D01*
X81116792Y-93382642D01*
X81116792Y-93385362D01*
X81119074Y-93393136D01*
X81123187Y-93412040D01*
X81125223Y-93414076D01*
X81126035Y-93416840D01*
X81140651Y-93429505D01*
X81183522Y-93472377D01*
X81194802Y-93486387D01*
X81209345Y-93491234D01*
X81222795Y-93498579D01*
X81229861Y-93498073D01*
X81349631Y-93537997D01*
X81360246Y-93544819D01*
X81380925Y-93544819D01*
X81401565Y-93545565D01*
X81402824Y-93544819D01*
X81468104Y-93544819D01*
X81480331Y-93547934D01*
X81499943Y-93541396D01*
X81519766Y-93535576D01*
X81520724Y-93534469D01*
X81640250Y-93494627D01*
X81657824Y-93490805D01*
X81668664Y-93479964D01*
X81681248Y-93471219D01*
X81683955Y-93464672D01*
X81761985Y-93386642D01*
X81772835Y-93380199D01*
X81782085Y-93361698D01*
X81791981Y-93343575D01*
X81791876Y-93342115D01*
X81824328Y-93277212D01*
X81830640Y-93271278D01*
X81833984Y-93257900D01*
X81835124Y-93255621D01*
X81836587Y-93247488D01*
X81880606Y-93071410D01*
X81885839Y-93063269D01*
X81885839Y-93050481D01*
X81886215Y-93048977D01*
X81885839Y-93039730D01*
X81885839Y-92910732D01*
X81888941Y-92901564D01*
X81885839Y-92889155D01*
X81885839Y-92887608D01*
X81883234Y-92878738D01*
X81839220Y-92702681D01*
X81840150Y-92694070D01*
X81833984Y-92681739D01*
X81833366Y-92679264D01*
X81829178Y-92672125D01*
X81786888Y-92587545D01*
X81784206Y-92575215D01*
X81769586Y-92560595D01*
X81755517Y-92545470D01*
X81754098Y-92545107D01*
X81676249Y-92467258D01*
X81664972Y-92453251D01*
X81650430Y-92448403D01*
X81636978Y-92441058D01*
X81629910Y-92441563D01*
X81510143Y-92401641D01*
X81499528Y-92394819D01*
X81478848Y-92394819D01*
X81458209Y-92394073D01*
X81456950Y-92394819D01*
X81338680Y-92394819D01*
X81320805Y-92392889D01*
X81307095Y-92399743D01*
X81292389Y-92404062D01*
X81287749Y-92409416D01*
X81196226Y-92455178D01*
X81172205Y-92477522D01*
X81161294Y-92520193D01*
X81175184Y-92561989D01*
X81209466Y-92589641D01*
X81253255Y-92594369D01*
X81352353Y-92544819D01*
X81465336Y-92544819D01*
X81579849Y-92582990D01*
X81653961Y-92657102D01*
X81692455Y-92734088D01*
X81735839Y-92907624D01*
X81735839Y-93032012D01*
X81692455Y-93205545D01*
X81653961Y-93282534D01*
X81579849Y-93356647D01*
X81465334Y-93394819D01*
X81394438Y-93394819D01*
X81279924Y-93356647D01*
X81266792Y-93343514D01*
X81266792Y-93116247D01*
X81393050Y-93116247D01*
X81424528Y-93107004D01*
X81453370Y-93073718D01*
X81459638Y-93030123D01*
X81441342Y-92990059D01*
X81404290Y-92966247D01*
X81197152Y-92966247D01*
X81180668Y-92963877D01*
X81165515Y-92970796D01*
X81149532Y-92975490D01*
X81145795Y-92979802D01*
X81140604Y-92982173D01*
X81131596Y-92996189D01*
X81120690Y-93008776D01*
X81119878Y-93014422D01*
X81116792Y-93019225D01*
X81116792Y-93035887D01*
X81114422Y-93052371D01*
X81116792Y-93057560D01*
X81116792Y-93361048D01*
X81113825Y-93369003D01*
X80838220Y-93369003D01*
X80838220Y-92478615D01*
X80841280Y-92465751D01*
X80834630Y-92446814D01*
X80828977Y-92427559D01*
X80827386Y-92426180D01*
X80826689Y-92424195D01*
X80810858Y-92411859D01*
X80795691Y-92398717D01*
X80793607Y-92398417D01*
X80791948Y-92397124D01*
X80771957Y-92395304D01*
X80752096Y-92392449D01*
X80750182Y-92393322D01*
X80748085Y-92393132D01*
X80730280Y-92402411D01*
X80712032Y-92410745D01*
X80710894Y-92412515D01*
X80709028Y-92413488D01*
X80699071Y-92430911D01*
X80688220Y-92447797D01*
X80688220Y-92449902D01*
X80266792Y-93187401D01*
X80266792Y-92459037D01*
X80257549Y-92427559D01*
X80224263Y-92398717D01*
X80180668Y-92392449D01*
X80140604Y-92410745D01*
X80116792Y-92447797D01*
X80116792Y-93461022D01*
X80113732Y-93473886D01*
X79790787Y-93473886D01*
X79792971Y-93458695D01*
X79790601Y-93453505D01*
X79790601Y-92475178D01*
X79792971Y-92458695D01*
X79786051Y-92443542D01*
X79781358Y-92427559D01*
X79777045Y-92423822D01*
X79774675Y-92418631D01*
X79760658Y-92409623D01*
X79748072Y-92398717D01*
X79742425Y-92397905D01*
X79737623Y-92394819D01*
X79720961Y-92394819D01*
X79704477Y-92392449D01*
X79699287Y-92394819D01*
X79486908Y-92394819D01*
X79474680Y-92391704D01*
X79455060Y-92398243D01*
X79435246Y-92404062D01*
X79434287Y-92405168D01*
X79314758Y-92445010D01*
X79297188Y-92448833D01*
X79286349Y-92459671D01*
X79273763Y-92468419D01*
X79271054Y-92474966D01*
X79193026Y-92552994D01*
X79182177Y-92559438D01*
X79172926Y-92577938D01*
X79163031Y-92596061D01*
X79163135Y-92597521D01*
X79130683Y-92662425D01*
X79124372Y-92668360D01*
X79121027Y-92681737D01*
X79119888Y-92684017D01*
X79118424Y-92692149D01*
X79074405Y-92868226D01*
X79069173Y-92876368D01*
X79069173Y-92889156D01*
X79068797Y-92890660D01*
X79069173Y-92899906D01*
X79069173Y-93028904D01*
X79066071Y-93038073D01*
X78509524Y-93038073D01*
X78509524Y-91870601D01*
X80688220Y-91870601D01*
X80697463Y-91902079D01*
X80730749Y-91930921D01*
X80774344Y-91937189D01*
X80814408Y-91918893D01*
X80838220Y-91881841D01*
X80838220Y-91428073D01*
X81113690Y-91428073D01*
X81116792Y-91440481D01*
X81116792Y-91442029D01*
X81119396Y-91450898D01*
X81163410Y-91626953D01*
X81162480Y-91635567D01*
X81168646Y-91647900D01*
X81169265Y-91650373D01*
X81173447Y-91657500D01*
X81215742Y-91742090D01*
X81218425Y-91754422D01*
X81233054Y-91769051D01*
X81247114Y-91784167D01*
X81248532Y-91784529D01*
X81326380Y-91862378D01*
X81337659Y-91876387D01*
X81352200Y-91881234D01*
X81365653Y-91888580D01*
X81372721Y-91888074D01*
X81492488Y-91927997D01*
X81503103Y-91934819D01*
X81523782Y-91934819D01*
X81544422Y-91935565D01*
X81545681Y-91934819D01*
X81757860Y-91934819D01*
X81774344Y-91937189D01*
X81789496Y-91930269D01*
X81805480Y-91925576D01*
X81809216Y-91921263D01*
X81814408Y-91918893D01*
X81823415Y-91904876D01*
X81834322Y-91892290D01*
X81835133Y-91886643D01*
X81838220Y-91881841D01*
X81838220Y-91865178D01*
X81840590Y-91848695D01*
X81838220Y-91843505D01*
X81838220Y-90865178D01*
X81840590Y-90848695D01*
X81833670Y-90833542D01*
X81828977Y-90817559D01*
X81824664Y-90813822D01*
X81822294Y-90808631D01*
X81808277Y-90799623D01*
X81795691Y-90788717D01*
X81790044Y-90787905D01*
X81785242Y-90784819D01*
X81768580Y-90784819D01*
X81752096Y-90782449D01*
X81746906Y-90784819D01*
X81534527Y-90784819D01*
X81522299Y-90781704D01*
X81502679Y-90788243D01*
X81482865Y-90794062D01*
X81481906Y-90795168D01*
X81362377Y-90835010D01*
X81344807Y-90838833D01*
X81333968Y-90849671D01*
X81321382Y-90858419D01*
X81318673Y-90864966D01*
X81240645Y-90942994D01*
X81229796Y-90949438D01*
X81220545Y-90967938D01*
X81210650Y-90986061D01*
X81210754Y-90987521D01*
X81178302Y-91052425D01*
X81171991Y-91058360D01*
X81168646Y-91071737D01*
X81167507Y-91074017D01*
X81166043Y-91082149D01*
X81122024Y-91258226D01*
X81116792Y-91266368D01*
X81116792Y-91279156D01*
X81116416Y-91280660D01*
X81116792Y-91289906D01*
X81116792Y-91418904D01*
X81113690Y-91428073D01*
X80838220Y-91428073D01*
X80838220Y-90849037D01*
X80828977Y-90817559D01*
X80795691Y-90788717D01*
X80752096Y-90782449D01*
X80712032Y-90800745D01*
X80688220Y-90837797D01*
X80688220Y-91870601D01*
X78509524Y-91870601D01*
X78509524Y-89633526D01*
X79542246Y-89633526D01*
X79556136Y-89675322D01*
X79590418Y-89702974D01*
X79634207Y-89707702D01*
X79733305Y-89658152D01*
X79888371Y-89658152D01*
X79956889Y-89692411D01*
X79987294Y-89722816D01*
X80021553Y-89791332D01*
X80021553Y-90041636D01*
X79987294Y-90110153D01*
X79956886Y-90140561D01*
X79888372Y-90174819D01*
X79733307Y-90174819D01*
X79644260Y-90130296D01*
X79611972Y-90124486D01*
X79571289Y-90141359D01*
X79546186Y-90177549D01*
X79544634Y-90221565D01*
X79567125Y-90259434D01*
X79678452Y-90315097D01*
X79693579Y-90324819D01*
X79708909Y-90324819D01*
X79723992Y-90327533D01*
X79730536Y-90324819D01*
X79902037Y-90324819D01*
X79919921Y-90326750D01*
X79933634Y-90319893D01*
X79948337Y-90315576D01*
X79952975Y-90310222D01*
X80026443Y-90273487D01*
X80038777Y-90270805D01*
X80053408Y-90256172D01*
X80068521Y-90242116D01*
X80068883Y-90240696D01*
X80095317Y-90214262D01*
X80106168Y-90207818D01*
X80115424Y-90189304D01*
X80125314Y-90171194D01*
X80125209Y-90169734D01*
X80161831Y-90096490D01*
X80171553Y-90081364D01*
X80171553Y-90066034D01*
X80174267Y-90050951D01*
X80171553Y-90044407D01*
X80171553Y-89777658D01*
X80173483Y-89759784D01*
X80166628Y-89746074D01*
X80162310Y-89731368D01*
X80156955Y-89726728D01*
X80120221Y-89653259D01*
X80117539Y-89640929D01*
X80110136Y-89633526D01*
X80399389Y-89633526D01*
X80413279Y-89675322D01*
X80447561Y-89702974D01*
X80491350Y-89707702D01*
X80590448Y-89658152D01*
X80745514Y-89658152D01*
X80814032Y-89692411D01*
X80844437Y-89722816D01*
X80878696Y-89791332D01*
X80878696Y-90041636D01*
X80844437Y-90110153D01*
X80814029Y-90140561D01*
X80745515Y-90174819D01*
X80590450Y-90174819D01*
X80501403Y-90130296D01*
X80469115Y-90124486D01*
X80428432Y-90141359D01*
X80403329Y-90177549D01*
X80401777Y-90221565D01*
X80424268Y-90259434D01*
X80535595Y-90315097D01*
X80550722Y-90324819D01*
X80566052Y-90324819D01*
X80581135Y-90327533D01*
X80587679Y-90324819D01*
X80759180Y-90324819D01*
X80777064Y-90326750D01*
X80790777Y-90319893D01*
X80805480Y-90315576D01*
X80810118Y-90310222D01*
X80883586Y-90273487D01*
X80895920Y-90270805D01*
X80910551Y-90256172D01*
X80925664Y-90242116D01*
X80926026Y-90240696D01*
X80952460Y-90214262D01*
X80963311Y-90207818D01*
X80972567Y-90189304D01*
X80982457Y-90171194D01*
X80982352Y-90169734D01*
X81018974Y-90096490D01*
X81028696Y-90081364D01*
X81028696Y-90066034D01*
X81031410Y-90050951D01*
X81028696Y-90044407D01*
X81028696Y-89777658D01*
X81030626Y-89759784D01*
X81023771Y-89746074D01*
X81019453Y-89731368D01*
X81014098Y-89726728D01*
X80977364Y-89653259D01*
X80974682Y-89640929D01*
X80960062Y-89626309D01*
X80945993Y-89611184D01*
X80944574Y-89610821D01*
X80918139Y-89584386D01*
X80911696Y-89573537D01*
X80893195Y-89564286D01*
X80875073Y-89554391D01*
X80873612Y-89554495D01*
X80800371Y-89517875D01*
X80785242Y-89508152D01*
X80769912Y-89508152D01*
X80754829Y-89505438D01*
X80748285Y-89508152D01*
X80576775Y-89508152D01*
X80558900Y-89506222D01*
X80545190Y-89513076D01*
X80530484Y-89517395D01*
X80525844Y-89522749D01*
X80434321Y-89568511D01*
X80410300Y-89590855D01*
X80399389Y-89633526D01*
X80110136Y-89633526D01*
X80102919Y-89626309D01*
X80088850Y-89611184D01*
X80087431Y-89610821D01*
X80060996Y-89584386D01*
X80054553Y-89573537D01*
X80036052Y-89564286D01*
X80017930Y-89554391D01*
X80016469Y-89554495D01*
X79943228Y-89517875D01*
X79928099Y-89508152D01*
X79912769Y-89508152D01*
X79897686Y-89505438D01*
X79891142Y-89508152D01*
X79719632Y-89508152D01*
X79701757Y-89506222D01*
X79688047Y-89513076D01*
X79673341Y-89517395D01*
X79668701Y-89522749D01*
X79577178Y-89568511D01*
X79553157Y-89590855D01*
X79542246Y-89633526D01*
X78509524Y-89633526D01*
X78509524Y-89252644D01*
X81161296Y-89252644D01*
X81497303Y-90260668D01*
X81496998Y-90269116D01*
X81504130Y-90281149D01*
X81505002Y-90283764D01*
X81509610Y-90290395D01*
X81519455Y-90307004D01*
X81522061Y-90308310D01*
X81523725Y-90310704D01*
X81541567Y-90318084D01*
X81558831Y-90326736D01*
X81561730Y-90326425D01*
X81564424Y-90327540D01*
X81583411Y-90324105D01*
X81602624Y-90322049D01*
X81604897Y-90320218D01*
X81607764Y-90319700D01*
X81621882Y-90306543D01*
X81636931Y-90294428D01*
X81637853Y-90291661D01*
X81639986Y-90289674D01*
X81644752Y-90270963D01*
X81980638Y-89263308D01*
X81981823Y-89230522D01*
X81959366Y-89192634D01*
X81919990Y-89172902D01*
X81876196Y-89177590D01*
X81841890Y-89205210D01*
X81572744Y-90012647D01*
X81307153Y-89215873D01*
X81288430Y-89188933D01*
X81247731Y-89172097D01*
X81204391Y-89179937D01*
X81172169Y-89209964D01*
X81161296Y-89252644D01*
X78509524Y-89252644D01*
X78509524Y-88637143D01*
X82467857Y-88637143D01*
X82467857Y-93967857D01*
G37*
G36*
X91985461Y-82112411D02*
G01*
X92015866Y-82142816D01*
X92050125Y-82211332D01*
X92050125Y-82461636D01*
X92015866Y-82530153D01*
X91985458Y-82560561D01*
X91916944Y-82594819D01*
X91761879Y-82594819D01*
X91723935Y-82575847D01*
X91723935Y-82097123D01*
X91761877Y-82078152D01*
X91916943Y-82078152D01*
X91985461Y-82112411D01*
G37*
G36*
X88794984Y-81779078D02*
G01*
X88825389Y-81809483D01*
X88863883Y-81886469D01*
X88907267Y-82060005D01*
X88907267Y-82279631D01*
X88863883Y-82453164D01*
X88825389Y-82530153D01*
X88794981Y-82560561D01*
X88726467Y-82594819D01*
X88666640Y-82594819D01*
X88598122Y-82560560D01*
X88567714Y-82530151D01*
X88529222Y-82453166D01*
X88485838Y-82279631D01*
X88485838Y-82060005D01*
X88529222Y-81886472D01*
X88567717Y-81809482D01*
X88598122Y-81779077D01*
X88666638Y-81744819D01*
X88726466Y-81744819D01*
X88794984Y-81779078D01*
G37*
G36*
X94067857Y-83167857D02*
G01*
X86347619Y-83167857D01*
X86347619Y-81958358D01*
X86904153Y-81958358D01*
X86910690Y-81977970D01*
X86916511Y-81997793D01*
X86917617Y-81998751D01*
X86957459Y-82118277D01*
X86961282Y-82135851D01*
X86972122Y-82146691D01*
X86980868Y-82159275D01*
X86987413Y-82161982D01*
X87420249Y-82594819D01*
X86971486Y-82594819D01*
X86940008Y-82604062D01*
X86911166Y-82637348D01*
X86904898Y-82680943D01*
X86923194Y-82721007D01*
X86960246Y-82744819D01*
X87582173Y-82744819D01*
X87584700Y-82746199D01*
X87603989Y-82744819D01*
X87612097Y-82744819D01*
X87614708Y-82744052D01*
X87628631Y-82743056D01*
X87635427Y-82737968D01*
X87643575Y-82735576D01*
X87652715Y-82725026D01*
X87663890Y-82716662D01*
X87666857Y-82708706D01*
X87672417Y-82702290D01*
X87674403Y-82688475D01*
X87679282Y-82675395D01*
X87677476Y-82667097D01*
X87678685Y-82658695D01*
X87672887Y-82646000D01*
X87669920Y-82632358D01*
X87663915Y-82626353D01*
X87660389Y-82618631D01*
X87657266Y-82616624D01*
X87856681Y-82616624D01*
X87860222Y-82632903D01*
X87861411Y-82649517D01*
X87864829Y-82654083D01*
X87866043Y-82659661D01*
X87877826Y-82671444D01*
X87887806Y-82684775D01*
X87893150Y-82686768D01*
X87915698Y-82709316D01*
X87916510Y-82712079D01*
X87927059Y-82721219D01*
X87935424Y-82732394D01*
X87943379Y-82735361D01*
X87949796Y-82740921D01*
X87958200Y-82742129D01*
X87965652Y-82746198D01*
X87971342Y-82745791D01*
X87976691Y-82747786D01*
X87984988Y-82745980D01*
X87993391Y-82747189D01*
X88001115Y-82743661D01*
X88009583Y-82743056D01*
X88014149Y-82739637D01*
X88019728Y-82738424D01*
X88025732Y-82732419D01*
X88033455Y-82728893D01*
X88038046Y-82721748D01*
X88044841Y-82716662D01*
X88046834Y-82711317D01*
X88079129Y-82679022D01*
X88092460Y-82669044D01*
X88098282Y-82653434D01*
X88106265Y-82638815D01*
X88105858Y-82633125D01*
X88107853Y-82627777D01*
X88104311Y-82611494D01*
X88103123Y-82594884D01*
X88099704Y-82590317D01*
X88098491Y-82584740D01*
X88086708Y-82572957D01*
X88076729Y-82559626D01*
X88071384Y-82557632D01*
X88048834Y-82535081D01*
X88048024Y-82532320D01*
X88037473Y-82523177D01*
X88029109Y-82512005D01*
X88021155Y-82509038D01*
X88014738Y-82503478D01*
X88006334Y-82502269D01*
X87998883Y-82498201D01*
X87993190Y-82498608D01*
X87987842Y-82496613D01*
X87979545Y-82498418D01*
X87971143Y-82497210D01*
X87963418Y-82500737D01*
X87954952Y-82501343D01*
X87950384Y-82504762D01*
X87944805Y-82505976D01*
X87938801Y-82511979D01*
X87931079Y-82515506D01*
X87926488Y-82522649D01*
X87919693Y-82527736D01*
X87917698Y-82533082D01*
X87885404Y-82565377D01*
X87872073Y-82575357D01*
X87866251Y-82590964D01*
X87858268Y-82605586D01*
X87858675Y-82611277D01*
X87856681Y-82616624D01*
X87657266Y-82616624D01*
X87648646Y-82611084D01*
X87323255Y-82285692D01*
X88332737Y-82285692D01*
X88335839Y-82298100D01*
X88335839Y-82299648D01*
X88338443Y-82308517D01*
X88382457Y-82484572D01*
X88381527Y-82493186D01*
X88387693Y-82505519D01*
X88388312Y-82507992D01*
X88392494Y-82515119D01*
X88434789Y-82599709D01*
X88437472Y-82612040D01*
X88452091Y-82626660D01*
X88466161Y-82641786D01*
X88467579Y-82642148D01*
X88494013Y-82668583D01*
X88500458Y-82679434D01*
X88518969Y-82688689D01*
X88537080Y-82698579D01*
X88538539Y-82698474D01*
X88611785Y-82735097D01*
X88626912Y-82744819D01*
X88642242Y-82744819D01*
X88657325Y-82747533D01*
X88663869Y-82744819D01*
X88740132Y-82744819D01*
X88758016Y-82746750D01*
X88771729Y-82739893D01*
X88786432Y-82735576D01*
X88791070Y-82730222D01*
X88864538Y-82693487D01*
X88876872Y-82690805D01*
X88886733Y-82680943D01*
X89952517Y-82680943D01*
X89970813Y-82721007D01*
X90007865Y-82744819D01*
X90121085Y-82744819D01*
X90138969Y-82746750D01*
X90152682Y-82739893D01*
X90167385Y-82735576D01*
X90172023Y-82730222D01*
X90236814Y-82697826D01*
X90239729Y-82697929D01*
X90256336Y-82688065D01*
X90263547Y-82684460D01*
X90265561Y-82682586D01*
X90277597Y-82675438D01*
X90281379Y-82667873D01*
X90287569Y-82662116D01*
X90291034Y-82648562D01*
X90333259Y-82564112D01*
X90342982Y-82548983D01*
X90342982Y-82533652D01*
X90345696Y-82518570D01*
X90342982Y-82512026D01*
X90342982Y-82154400D01*
X90666459Y-82154400D01*
X90669173Y-82160943D01*
X90669173Y-82680601D01*
X90678416Y-82712079D01*
X90711702Y-82740921D01*
X90755297Y-82747189D01*
X90795361Y-82728893D01*
X90819173Y-82691841D01*
X90819173Y-82163715D01*
X90847694Y-82106672D01*
X90904734Y-82078152D01*
X91012181Y-82078152D01*
X91080699Y-82112411D01*
X91097744Y-82129456D01*
X91097744Y-82680601D01*
X91106987Y-82712079D01*
X91140273Y-82740921D01*
X91183868Y-82747189D01*
X91223932Y-82728893D01*
X91247744Y-82691841D01*
X91247744Y-82111920D01*
X91250711Y-82103966D01*
X91247744Y-82090326D01*
X91247744Y-82053526D01*
X91570818Y-82053526D01*
X91573935Y-82062905D01*
X91573935Y-82620889D01*
X91573206Y-82641565D01*
X91573935Y-82642792D01*
X91573935Y-82808635D01*
X91572004Y-82826520D01*
X91578860Y-82840233D01*
X91583178Y-82854936D01*
X91588531Y-82859574D01*
X91625266Y-82933043D01*
X91627949Y-82945375D01*
X91642576Y-82960002D01*
X91656638Y-82975120D01*
X91658056Y-82975482D01*
X91684491Y-83001917D01*
X91690935Y-83012767D01*
X91709444Y-83022021D01*
X91727558Y-83031912D01*
X91729016Y-83031807D01*
X91802262Y-83068430D01*
X91817389Y-83078152D01*
X91832719Y-83078152D01*
X91847802Y-83080866D01*
X91854346Y-83078152D01*
X91978228Y-83078152D01*
X91996112Y-83080083D01*
X92009825Y-83073226D01*
X92024528Y-83068909D01*
X92029166Y-83063555D01*
X92120690Y-83017793D01*
X92144712Y-82995449D01*
X92155623Y-82952778D01*
X92141733Y-82910983D01*
X92107451Y-82883331D01*
X92063662Y-82878603D01*
X91964563Y-82928152D01*
X91857117Y-82928152D01*
X91788599Y-82893893D01*
X91758192Y-82863486D01*
X91723935Y-82794971D01*
X91723935Y-82744819D01*
X91737481Y-82744819D01*
X91752564Y-82747533D01*
X91759108Y-82744819D01*
X91930609Y-82744819D01*
X91948493Y-82746750D01*
X91962206Y-82739893D01*
X91976909Y-82735576D01*
X91981547Y-82730222D01*
X92055015Y-82693487D01*
X92067349Y-82690805D01*
X92077552Y-82680601D01*
X92478696Y-82680601D01*
X92487939Y-82712079D01*
X92521225Y-82740921D01*
X92564820Y-82747189D01*
X92604884Y-82728893D01*
X92628696Y-82691841D01*
X92628696Y-82680943D01*
X92809660Y-82680943D01*
X92827956Y-82721007D01*
X92865008Y-82744819D01*
X93357860Y-82744819D01*
X93374344Y-82747189D01*
X93389496Y-82740269D01*
X93405480Y-82735576D01*
X93409216Y-82731263D01*
X93414408Y-82728893D01*
X93423415Y-82714876D01*
X93434322Y-82702290D01*
X93435133Y-82696643D01*
X93438220Y-82691841D01*
X93438219Y-82675178D01*
X93440590Y-82658695D01*
X93438220Y-82653505D01*
X93438220Y-81659037D01*
X93428977Y-81627559D01*
X93395691Y-81598717D01*
X93352096Y-81592449D01*
X93312032Y-81610745D01*
X93288220Y-81647797D01*
X93288220Y-82594819D01*
X92876248Y-82594819D01*
X92844770Y-82604062D01*
X92815928Y-82637348D01*
X92809660Y-82680943D01*
X92628696Y-82680943D01*
X92628696Y-81992370D01*
X92619453Y-81960892D01*
X92586167Y-81932050D01*
X92542572Y-81925782D01*
X92502508Y-81944078D01*
X92478696Y-81981130D01*
X92478696Y-82680601D01*
X92077552Y-82680601D01*
X92081980Y-82676172D01*
X92097093Y-82662116D01*
X92097455Y-82660696D01*
X92123889Y-82634262D01*
X92134740Y-82627818D01*
X92143996Y-82609304D01*
X92153886Y-82591194D01*
X92153781Y-82589734D01*
X92190403Y-82516490D01*
X92200125Y-82501364D01*
X92200125Y-82486034D01*
X92202839Y-82470951D01*
X92200125Y-82464407D01*
X92200125Y-82197658D01*
X92202055Y-82179784D01*
X92195200Y-82166074D01*
X92190882Y-82151368D01*
X92185527Y-82146728D01*
X92148793Y-82073259D01*
X92146111Y-82060929D01*
X92131491Y-82046309D01*
X92117422Y-82031184D01*
X92116003Y-82030821D01*
X92089568Y-82004386D01*
X92083125Y-81993537D01*
X92064624Y-81984286D01*
X92046502Y-81974391D01*
X92045041Y-81974495D01*
X91971800Y-81937875D01*
X91956671Y-81928152D01*
X91941341Y-81928152D01*
X91926258Y-81925438D01*
X91919714Y-81928152D01*
X91748204Y-81928152D01*
X91730329Y-81926222D01*
X91716619Y-81933076D01*
X91701913Y-81937395D01*
X91697273Y-81942749D01*
X91695041Y-81943865D01*
X91681406Y-81932050D01*
X91637811Y-81925782D01*
X91597747Y-81944078D01*
X91573935Y-81981130D01*
X91573935Y-82041335D01*
X91570818Y-82053526D01*
X91247744Y-82053526D01*
X91247744Y-81711862D01*
X92428110Y-81711862D01*
X92431651Y-81728142D01*
X92432840Y-81744754D01*
X92436258Y-81749320D01*
X92437472Y-81754899D01*
X92449254Y-81766681D01*
X92459234Y-81780013D01*
X92464579Y-81782006D01*
X92487127Y-81804554D01*
X92487939Y-81807317D01*
X92498488Y-81816457D01*
X92506853Y-81827632D01*
X92514808Y-81830599D01*
X92521225Y-81836159D01*
X92529629Y-81837367D01*
X92537081Y-81841436D01*
X92542771Y-81841029D01*
X92548120Y-81843024D01*
X92556417Y-81841218D01*
X92564820Y-81842427D01*
X92572544Y-81838899D01*
X92581012Y-81838294D01*
X92585578Y-81834875D01*
X92591157Y-81833662D01*
X92597161Y-81827657D01*
X92604884Y-81824131D01*
X92609475Y-81816986D01*
X92616270Y-81811900D01*
X92618263Y-81806555D01*
X92650559Y-81774259D01*
X92663889Y-81764281D01*
X92669710Y-81748674D01*
X92677694Y-81734053D01*
X92677286Y-81728362D01*
X92679282Y-81723014D01*
X92675739Y-81706730D01*
X92674552Y-81690122D01*
X92671133Y-81685555D01*
X92669920Y-81679977D01*
X92658136Y-81668193D01*
X92648158Y-81654864D01*
X92642813Y-81652870D01*
X92620264Y-81630321D01*
X92619453Y-81627559D01*
X92608902Y-81618416D01*
X92600539Y-81607245D01*
X92592584Y-81604278D01*
X92586167Y-81598717D01*
X92577764Y-81597508D01*
X92570311Y-81593439D01*
X92564618Y-81593846D01*
X92559272Y-81591852D01*
X92550974Y-81593657D01*
X92542572Y-81592449D01*
X92534848Y-81595976D01*
X92526380Y-81596582D01*
X92521813Y-81600000D01*
X92516235Y-81601214D01*
X92510230Y-81607218D01*
X92502508Y-81610745D01*
X92497917Y-81617888D01*
X92491121Y-81622976D01*
X92489127Y-81628321D01*
X92456833Y-81660615D01*
X92443502Y-81670595D01*
X92437680Y-81686202D01*
X92429697Y-81700823D01*
X92430104Y-81706515D01*
X92428110Y-81711862D01*
X91247744Y-81711862D01*
X91247744Y-81659037D01*
X91238501Y-81627559D01*
X91205215Y-81598717D01*
X91161620Y-81592449D01*
X91121556Y-81610745D01*
X91097744Y-81647797D01*
X91097744Y-81953227D01*
X91067038Y-81937875D01*
X91051909Y-81928152D01*
X91036579Y-81928152D01*
X91021496Y-81925438D01*
X91014952Y-81928152D01*
X90891061Y-81928152D01*
X90873186Y-81926222D01*
X90859476Y-81933076D01*
X90844770Y-81937395D01*
X90840130Y-81942749D01*
X90775339Y-81975144D01*
X90772427Y-81975042D01*
X90755826Y-81984901D01*
X90748607Y-81988511D01*
X90746590Y-81990386D01*
X90734558Y-81997533D01*
X90730775Y-82005097D01*
X90724586Y-82010855D01*
X90721120Y-82024408D01*
X90678896Y-82108857D01*
X90669173Y-82123987D01*
X90669172Y-82139317D01*
X90666459Y-82154400D01*
X90342982Y-82154400D01*
X90342982Y-82078152D01*
X90421621Y-82078152D01*
X90453099Y-82068909D01*
X90481941Y-82035623D01*
X90488209Y-81992028D01*
X90469913Y-81951964D01*
X90432861Y-81928152D01*
X90342982Y-81928152D01*
X90342982Y-81659037D01*
X90333739Y-81627559D01*
X90300453Y-81598717D01*
X90256858Y-81592449D01*
X90216794Y-81610745D01*
X90192982Y-81647797D01*
X90192982Y-81928152D01*
X90019105Y-81928152D01*
X89987627Y-81937395D01*
X89958785Y-81970681D01*
X89952517Y-82014276D01*
X89970813Y-82054340D01*
X90007865Y-82078152D01*
X90192982Y-82078152D01*
X90192982Y-82509255D01*
X90164460Y-82566298D01*
X90107420Y-82594819D01*
X90019105Y-82594819D01*
X89987627Y-82604062D01*
X89958785Y-82637348D01*
X89952517Y-82680943D01*
X88886733Y-82680943D01*
X88891503Y-82676172D01*
X88906616Y-82662116D01*
X88906978Y-82660696D01*
X88933412Y-82634262D01*
X88944263Y-82627818D01*
X88953519Y-82609304D01*
X88963409Y-82591194D01*
X88963304Y-82589734D01*
X88995756Y-82524831D01*
X89002068Y-82518897D01*
X89005412Y-82505519D01*
X89006552Y-82503240D01*
X89008015Y-82495107D01*
X89052034Y-82319029D01*
X89057267Y-82310888D01*
X89057267Y-82298100D01*
X89057643Y-82296596D01*
X89057267Y-82287349D01*
X89057267Y-82063113D01*
X89060369Y-82053945D01*
X89057267Y-82041536D01*
X89057267Y-82039989D01*
X89054662Y-82031119D01*
X89010648Y-81855062D01*
X89011578Y-81846451D01*
X89005412Y-81834120D01*
X89004794Y-81831645D01*
X89000606Y-81824506D01*
X88958316Y-81739926D01*
X88955634Y-81727596D01*
X88941014Y-81712976D01*
X88926945Y-81697851D01*
X88925526Y-81697488D01*
X88899091Y-81671053D01*
X88892648Y-81660204D01*
X88874147Y-81650953D01*
X88856025Y-81641058D01*
X88854564Y-81641162D01*
X88781323Y-81604542D01*
X88766194Y-81594819D01*
X88750864Y-81594819D01*
X88735781Y-81592105D01*
X88729237Y-81594819D01*
X88652965Y-81594819D01*
X88635090Y-81592889D01*
X88621380Y-81599743D01*
X88606674Y-81604062D01*
X88602034Y-81609416D01*
X88528565Y-81646150D01*
X88516235Y-81648833D01*
X88501615Y-81663452D01*
X88486490Y-81677522D01*
X88486127Y-81678940D01*
X88459692Y-81705375D01*
X88448843Y-81711819D01*
X88439592Y-81730319D01*
X88429697Y-81748442D01*
X88429801Y-81749902D01*
X88397349Y-81814806D01*
X88391038Y-81820741D01*
X88387693Y-81834118D01*
X88386554Y-81836398D01*
X88385090Y-81844530D01*
X88341071Y-82020607D01*
X88335839Y-82028749D01*
X88335839Y-82041537D01*
X88335463Y-82043041D01*
X88335839Y-82052287D01*
X88335839Y-82276523D01*
X88332737Y-82285692D01*
X87323255Y-82285692D01*
X87095439Y-82057876D01*
X87057267Y-81943361D01*
X87057268Y-81878001D01*
X87091527Y-81809482D01*
X87121932Y-81779077D01*
X87190448Y-81744819D01*
X87393133Y-81744819D01*
X87461651Y-81779078D01*
X87508287Y-81825714D01*
X87537081Y-81841436D01*
X87581012Y-81838294D01*
X87616270Y-81811900D01*
X87631663Y-81770633D01*
X87622301Y-81727596D01*
X87565758Y-81671053D01*
X87559315Y-81660204D01*
X87540814Y-81650953D01*
X87522692Y-81641058D01*
X87521231Y-81641162D01*
X87447990Y-81604542D01*
X87432861Y-81594819D01*
X87417531Y-81594819D01*
X87402448Y-81592105D01*
X87395904Y-81594819D01*
X87176775Y-81594819D01*
X87158900Y-81592889D01*
X87145190Y-81599743D01*
X87130484Y-81604062D01*
X87125844Y-81609416D01*
X87052375Y-81646150D01*
X87040045Y-81648833D01*
X87025425Y-81663452D01*
X87010300Y-81677522D01*
X87009937Y-81678940D01*
X86983502Y-81705375D01*
X86972653Y-81711819D01*
X86963402Y-81730319D01*
X86953507Y-81748442D01*
X86953611Y-81749902D01*
X86916991Y-81823143D01*
X86907268Y-81838273D01*
X86907268Y-81853603D01*
X86904554Y-81868686D01*
X86907268Y-81875229D01*
X86907268Y-81946130D01*
X86904153Y-81958358D01*
X86347619Y-81958358D01*
X86347619Y-81057143D01*
X94067857Y-81057143D01*
X94067857Y-83167857D01*
G37*
M02*
