%TF.GenerationSoftware,KiCad,Pcbnew,7.0.5*%
%TF.CreationDate,2023-10-17T21:25:03+03:00*%
%TF.ProjectId,Light,4c696768-742e-46b6-9963-61645f706362,rev?*%
%TF.SameCoordinates,Original*%
%TF.FileFunction,Soldermask,Top*%
%TF.FilePolarity,Negative*%
%FSLAX46Y46*%
G04 Gerber Fmt 4.6, Leading zero omitted, Abs format (unit mm)*
G04 Created by KiCad (PCBNEW 7.0.5) date 2023-10-17 21:25:03*
%MOMM*%
%LPD*%
G01*
G04 APERTURE LIST*
%ADD10R,1.500000X1.000000*%
%ADD11C,2.100000*%
G04 APERTURE END LIST*
D10*
%TO.C,D9*%
X109550000Y-108900000D03*
X109550000Y-112100000D03*
X114450000Y-112100000D03*
X114450000Y-108900000D03*
%TD*%
%TO.C,D8*%
X97550000Y-108900000D03*
X97550000Y-112100000D03*
X102450000Y-112100000D03*
X102450000Y-108900000D03*
%TD*%
%TO.C,D7*%
X85550000Y-108900000D03*
X85550000Y-112100000D03*
X90450000Y-112100000D03*
X90450000Y-108900000D03*
%TD*%
%TO.C,D1*%
X85550000Y-87900000D03*
X85550000Y-91100000D03*
X90450000Y-91100000D03*
X90450000Y-87900000D03*
%TD*%
D11*
%TO.C,H3*%
X100000000Y-121000000D03*
%TD*%
%TO.C,H1*%
X100000000Y-79000000D03*
%TD*%
D10*
%TO.C,D3*%
X109550000Y-87900000D03*
X109550000Y-91100000D03*
X114450000Y-91100000D03*
X114450000Y-87900000D03*
%TD*%
D11*
%TO.C,H2*%
X121000000Y-100000000D03*
%TD*%
%TO.C,J1*%
X79400000Y-102100000D03*
X79400000Y-99600000D03*
X79400000Y-97100000D03*
%TD*%
D10*
%TO.C,D5*%
X102450000Y-101600000D03*
X102450000Y-98400000D03*
X97550000Y-98400000D03*
X97550000Y-101600000D03*
%TD*%
%TO.C,D2*%
X97600000Y-87900000D03*
X97600000Y-91100000D03*
X102500000Y-91100000D03*
X102500000Y-87900000D03*
%TD*%
%TO.C,D6*%
X90450000Y-101600000D03*
X90450000Y-98400000D03*
X85550000Y-98400000D03*
X85550000Y-101600000D03*
%TD*%
%TO.C,D4*%
X114450000Y-101600000D03*
X114450000Y-98400000D03*
X109550000Y-98400000D03*
X109550000Y-101600000D03*
%TD*%
M02*
